<?xml version="1.0" standalone="no"?><!DOCTYPE svg PUBLIC "-//W3C//DTD SVG 1.1//EN" "http://www.w3.org/Graphics/SVG/1.1/DTD/svg11.dtd"><svg height="456" node-id="1" sillyvg="true" template-height="456" template-width="770" version="1.1" viewBox="0 0 770 456" width="770" xmlns="http://www.w3.org/2000/svg" xmlns:xlink="http://www.w3.org/1999/xlink"><defs node-id="145"><mask height="134.40002" id="mask-2" maskUnits="userSpaceOnUse" node-id="23" width="949.2001" x="-78.76768" y="351.79993"><path d="M 451.50 90.50 L 443.20 80.60 L 434.60 71.50 L 425.90 62.90 L 416.90 54.90 L 407.60 47.60 L 398.10 40.80 L 388.30 34.50 L 378.20 28.80 L 367.90 23.60 L 357.20 19.00 L 346.30 14.90 L 335.00 11.30 L 323.30 8.20 L 311.30 5.60 L 298.90 3.60 L 286.00 2.20 L 272.70 1.30 L 259.00 1.00 L 244.30 1.30 L 230.40 2.20 L 217.20 3.60 L 204.70 5.60 L 192.70 8.00 L 180.60 11.10 L 169.10 14.60 L 158.10 18.70 L 147.70 23.10 L 137.70 28.10 L 127.90 33.60 L 118.50 39.50 L 109.50 45.90 L 100.90 52.60 L 92.70 59.90 L 84.80 67.50 L 77.30 75.50 L 70.10 83.90 L 63.20 92.70 L 56.60 102.00 L 50.40 111.40 L 44.50 121.20 L 38.90 131.50 L 33.40 142.10 L 28.30 153.10 L 20.10 173.20 L 13.20 194.20 L 10.30 204.90 L 5.60 226.50 L 2.30 248.40 L 0.60 269.90 L 0.30 280.50 L 0.50 291.20 L 1.00 301.60 L 2.00 311.70 L 3.40 321.50 L 5.30 331.40 L 7.60 340.80 L 10.30 349.70 L 13.40 358.30 L 16.30 365.10 L 19.50 371.50 L 23.00 377.50 L 26.70 383.30 L 30.80 388.70 L 35.20 393.90 L 39.90 398.70 L 44.90 403.00 L 50.30 407.10 L 56.00 410.70 L 66.30 416.40 L 77.00 421.70 L 88.00 426.60 L 99.30 431.00 L 110.80 434.90 L 122.80 438.40 L 135.20 441.50 L 148.20 444.20 L 161.20 446.30 L 174.70 448.00 L 189.00 449.20 L 204.00 450.00 L 218.70 450.30 L 234.30 450.20 L 250.70 449.60 L 267.90 448.50 L 302.60 445.00 L 321.40 442.50 L 357.70 437.10 L 372.60 435.50 L 386.20 434.50 L 399.90 434.00 L 412.40 434.00 L 423.90 434.40 L 435.50 435.30 L 456.10 437.80 L 470.70 440.30 L 522.70 451.20 L 535.20 453.20 L 552.30 454.80 L 561.30 455.00 L 570.20 454.80 L 579.70 454.00 L 589.80 452.70 L 603.30 450.40 L 629.80 444.90 L 642.80 441.70 L 655.50 438.00 L 667.70 433.90 L 676.70 430.50 L 685.40 426.70 L 693.80 422.70 L 701.90 418.30 L 709.70 413.50 L 717.10 408.30 L 724.10 402.70 L 730.80 396.70 L 735.80 391.60 L 740.50 386.20 L 744.90 380.40 L 749.00 374.30 L 752.80 367.80 L 756.20 361.20 L 759.30 354.10 L 762.00 346.60 L 764.40 338.70 L 766.40 330.10 L 768.00 321.00 L 769.00 312.00 L 769.30 303.40 L 769.10 294.90 L 768.30 286.40 L 767.00 278.20 L 765.30 270.10 L 763.10 262.30 L 757.50 247.10 L 750.70 232.70 L 745.40 223.50 L 739.80 214.80 L 733.80 206.60 L 727.50 198.60 L 714.70 184.30 L 708.00 177.70 L 695.40 166.40 L 686.10 158.90 L 678.00 153.10 L 674.50 151.00 L 670.70 149.20 L 666.80 147.90 L 662.70 146.90 L 657.10 146.00 L 651.20 145.70 L 644.80 145.90 L 631.90 147.30 L 614.70 150.80 L 582.10 158.60 L 571.20 160.90 L 560.40 162.70 L 553.10 163.60 L 539.20 164.20 L 532.40 163.70 L 525.80 162.80 L 519.40 161.20 L 511.70 158.70 L 504.50 155.60 L 497.80 152.20 L 491.50 148.30 L 485.60 143.90 L 480.10 139.10 L 475.00 133.80 L 470.20 128.00 L 465.70 121.70 L 461.70 114.90 L 457.90 107.40 L 454.50 99.30 L 451.50 90.50 Z" fill="#ffffff" fill-rule="evenodd" node-id="150" stroke="none" target-height="454" target-width="769" target-x="0.3" target-y="1"></path></mask><mask height="20.399994" id="mask1" maskUnits="userSpaceOnUse" node-id="154" width="949.2001" x="-78.76768" y="344.29996"><path d="M 451.50 618.50 L 443.20 628.40 L 434.60 637.50 L 425.90 646.10 L 416.90 654.10 L 407.60 661.40 L 398.10 668.20 L 388.30 674.50 L 378.20 680.20 L 367.90 685.40 L 357.20 690.00 L 346.30 694.10 L 335.00 697.70 L 323.30 700.80 L 311.30 703.40 L 298.90 705.40 L 286.00 706.80 L 272.70 707.70 L 259.00 708.00 L 244.30 707.70 L 230.40 706.80 L 217.20 705.40 L 204.70 703.40 L 192.70 701.00 L 180.60 697.90 L 169.10 694.40 L 158.10 690.30 L 147.70 685.90 L 137.70 680.90 L 127.90 675.40 L 118.50 669.50 L 109.50 663.10 L 100.90 656.40 L 92.70 649.10 L 84.80 641.50 L 77.30 633.50 L 70.10 625.10 L 63.20 616.30 L 56.60 607.00 L 50.40 597.60 L 44.50 587.80 L 38.90 577.50 L 33.40 566.90 L 28.30 555.90 L 20.10 535.80 L 13.20 514.80 L 10.30 504.10 L 5.60 482.50 L 2.30 460.60 L 0.60 439.10 L 0.30 428.50 L 0.50 417.80 L 1.00 407.40 L 2.00 397.30 L 3.40 387.50 L 5.30 377.60 L 7.60 368.20 L 10.30 359.30 L 13.40 350.70 L 16.30 343.90 L 19.50 337.50 L 23.00 331.50 L 26.70 325.70 L 30.80 320.30 L 35.20 315.10 L 39.90 310.30 L 44.90 306.00 L 50.30 301.90 L 56.00 298.30 L 66.30 292.60 L 77.00 287.30 L 88.00 282.40 L 99.30 278.00 L 110.80 274.10 L 122.80 270.60 L 135.20 267.50 L 148.20 264.80 L 161.20 262.70 L 174.70 261.00 L 189.00 259.80 L 204.00 259.00 L 218.70 258.70 L 234.30 258.80 L 250.70 259.40 L 267.90 260.50 L 302.60 264.00 L 321.40 266.50 L 357.70 271.90 L 372.60 273.50 L 386.20 274.50 L 399.90 275.00 L 412.40 275.00 L 423.90 274.60 L 435.50 273.70 L 456.10 271.20 L 470.70 268.70 L 522.70 257.80 L 535.20 255.80 L 552.30 254.20 L 561.30 254.00 L 570.20 254.20 L 579.70 255.00 L 589.80 256.30 L 603.30 258.60 L 629.80 264.10 L 642.80 267.30 L 655.50 271.00 L 667.70 275.10 L 676.70 278.50 L 685.40 282.30 L 693.80 286.30 L 701.90 290.70 L 709.70 295.50 L 717.10 300.70 L 724.10 306.30 L 730.80 312.30 L 735.80 317.40 L 740.50 322.80 L 744.90 328.60 L 749.00 334.70 L 752.80 341.20 L 756.20 347.80 L 759.30 354.90 L 762.00 362.40 L 764.40 370.30 L 766.40 378.90 L 768.00 388.00 L 769.00 397.00 L 769.30 405.60 L 769.10 414.10 L 768.30 422.60 L 767.00 430.80 L 765.30 438.90 L 763.10 446.70 L 757.50 461.90 L 750.70 476.30 L 745.40 485.50 L 739.80 494.20 L 733.80 502.40 L 727.50 510.40 L 714.70 524.70 L 708.00 531.30 L 695.40 542.60 L 686.10 550.10 L 678.00 555.90 L 674.50 558.00 L 670.70 559.80 L 666.80 561.10 L 662.70 562.10 L 657.10 563.00 L 651.20 563.30 L 644.80 563.10 L 631.90 561.70 L 614.70 558.20 L 582.10 550.40 L 571.20 548.10 L 560.40 546.30 L 553.10 545.40 L 539.20 544.80 L 532.40 545.30 L 525.80 546.20 L 519.40 547.80 L 511.70 550.30 L 504.50 553.40 L 497.80 556.80 L 491.50 560.70 L 485.60 565.10 L 480.10 569.90 L 475.00 575.20 L 470.20 581.00 L 465.70 587.30 L 461.70 594.10 L 457.90 601.60 L 454.50 609.70 L 451.50 618.50 Z" fill="#ffffff" fill-rule="evenodd" node-id="158" stroke="none" target-height="454" target-width="769" target-x="0.3" target-y="254"></path></mask><mask height="104.400024" id="mask-4" maskUnits="userSpaceOnUse" node-id="64" width="494.40005" x="219.94858" y="350.7013"><path d="M 211.10 179.00 L 581.00 179.00 L 581.00 359.30 L 613.30 359.30 L 623.20 376.20 L 631.80 389.80 L 639.20 400.70 L 645.40 409.10 L 650.70 415.50 L 655.20 420.20 L 658.90 423.50 L 662.00 425.70 L 329.90 422.50 L 326.20 422.20 L 322.70 421.40 L 319.30 420.00 L 316.10 418.20 L 313.30 416.00 L 310.70 413.20 L 299.80 399.30 L 292.10 389.00 L 287.10 381.50 L 279.30 368.30 L 275.30 363.50 L 271.20 360.80 L 268.80 360.00 L 265.90 359.50 L 262.20 359.30 L 259.90 359.60 L 257.60 360.50 L 255.50 361.90 L 251.80 366.10 L 250.00 369.00 L 247.70 373.50 L 243.70 384.10 L 236.60 408.50 L 235.40 411.20 L 233.90 413.30 L 232.00 414.90 L 229.90 416.30 L 227.70 417.20 L 225.30 417.70 L 220.50 417.80 L 216.00 416.60 L 212.60 414.10 L 211.40 412.50 L 210.60 410.70 L 210.30 408.50 L 211.10 179.00 Z" fill="#ffffff" fill-rule="evenodd" node-id="165" stroke="none" target-height="246.70001" target-width="451.7" target-x="210.3" target-y="179"></path></mask><mask height="259.2" id="mask2" maskUnits="userSpaceOnUse" node-id="169" width="417.60004" x="188.98218" y="166.25299"><path d="M 211.10 179.00 L 581.00 179.00 L 581.00 359.30 L 613.30 359.30 L 623.20 376.20 L 631.80 389.80 L 639.20 400.70 L 645.40 409.10 L 650.70 415.50 L 655.20 420.20 L 658.90 423.50 L 662.00 425.70 L 329.90 422.50 L 326.20 422.20 L 322.70 421.40 L 319.30 420.00 L 316.10 418.20 L 313.30 416.00 L 310.70 413.20 L 299.80 399.30 L 292.10 389.00 L 287.10 381.50 L 279.30 368.30 L 275.30 363.50 L 271.20 360.80 L 268.80 360.00 L 265.90 359.50 L 262.20 359.30 L 259.90 359.60 L 257.60 360.50 L 255.50 361.90 L 251.80 366.10 L 250.00 369.00 L 247.70 373.50 L 243.70 384.10 L 236.60 408.50 L 235.40 411.20 L 233.90 413.30 L 232.00 414.90 L 229.90 416.30 L 227.70 417.20 L 225.30 417.70 L 220.50 417.80 L 216.00 416.60 L 212.60 414.10 L 211.40 412.50 L 210.60 410.70 L 210.30 408.50 L 211.10 179.00 Z" fill="#ffffff" fill-rule="evenodd" node-id="173" stroke="none" target-height="246.70001" target-width="451.7" target-x="210.3" target-y="179"></path></mask><mask height="31.171738" id="mask-6" maskUnits="userSpaceOnUse" node-id="73" width="63.4906" x="335.13263" y="143.95117"><path d="M 343.40 172.50 L 369.50 146.50 L 396.30 172.50 Z" fill="#ffffff" fill-rule="evenodd" node-id="180" stroke="none" target-height="26" target-width="52.899994" target-x="343.4" target-y="146.5"></path></mask><mask height="33.887512" id="mask-8" maskUnits="userSpaceOnUse" node-id="79" width="64.83971" x="218.48341" y="63.65854"><path d="M 226.90 94.70 L 255.00 66.50 L 280.90 94.70 Z" fill="#ffffff" fill-rule="evenodd" node-id="187" stroke="none" target-height="28.199997" target-width="54" target-x="226.9" target-y="66.5"></path></mask><mask height="9.599976" id="mask-10" maskUnits="userSpaceOnUse" node-id="98" width="83.848236" x="105.52368" y="356.30728"><path d="M 117.80 357.10 L 175.70 357.10 L 176.90 357.30 L 177.80 358.00 L 178.50 358.90 L 178.70 360.60 L 169.70 415.60 L 168.60 417.40 L 166.70 418.10 L 126.80 418.10 L 125.70 417.90 L 124.20 416.60 L 114.80 360.60 L 114.90 359.40 L 115.30 358.40 L 116.20 357.60 L 117.80 357.10 Z" fill="#ffffff" fill-rule="evenodd" node-id="194" stroke="none" target-height="61" target-width="63.899994" target-x="114.8" target-y="357.1"></path></mask><mask height="138.58136" id="mask-12" maskUnits="userSpaceOnUse" node-id="103" width="88.692444" x="132.94128" y="211.4515"><path d="M 140.30 334.50 L 142.00 312.70 L 143.50 298.30 L 145.00 289.30 L 147.20 280.50 L 149.60 272.70 L 152.40 265.20 L 155.00 259.00 L 159.80 249.20 L 163.80 242.20 L 167.40 236.90 L 171.10 232.30 L 174.40 229.00 L 177.70 226.20 L 180.40 224.30 L 187.00 220.70 L 192.40 219.30 L 195.40 219.00 L 201.40 219.50 L 204.20 220.30 L 206.70 221.60 L 208.80 223.30 L 210.50 225.20 L 211.90 227.30 L 212.90 229.70 L 213.80 233.00 L 214.20 237.10 L 214.10 242.20 L 213.50 245.40 L 212.60 248.40 L 211.30 250.90 L 207.70 255.40 L 202.00 259.80 L 195.30 263.40 L 190.80 266.20 L 180.60 273.50 L 169.70 282.80 L 164.40 288.00 L 159.80 293.10 L 156.40 297.60 L 153.10 302.90 L 149.80 309.20 L 146.50 316.40 L 143.40 324.80 L 140.30 334.50 Z" fill="#ffffff" fill-rule="evenodd" node-id="201" stroke="none" target-height="115.5" target-width="73.899994" target-x="140.3" target-y="219"></path></mask><mask height="112.80025" id="mask3" maskUnits="userSpaceOnUse" node-id="205" width="74.40024" x="133.82605" y="231.6324"><path d="M 140.30 334.50 L 142.00 312.70 L 143.50 298.30 L 145.00 289.30 L 147.20 280.50 L 149.60 272.70 L 152.40 265.20 L 155.00 259.00 L 159.80 249.20 L 163.80 242.20 L 167.40 236.90 L 171.10 232.30 L 174.40 229.00 L 177.70 226.20 L 180.40 224.30 L 187.00 220.70 L 192.40 219.30 L 195.40 219.00 L 201.40 219.50 L 204.20 220.30 L 206.70 221.60 L 208.80 223.30 L 210.50 225.20 L 211.90 227.30 L 212.90 229.70 L 213.80 233.00 L 214.20 237.10 L 214.10 242.20 L 213.50 245.40 L 212.60 248.40 L 211.30 250.90 L 207.70 255.40 L 202.00 259.80 L 195.30 263.40 L 190.80 266.20 L 180.60 273.50 L 169.70 282.80 L 164.40 288.00 L 159.80 293.10 L 156.40 297.60 L 153.10 302.90 L 149.80 309.20 L 146.50 316.40 L 143.40 324.80 L 140.30 334.50 Z" fill="#ffffff" fill-rule="evenodd" node-id="209" stroke="none" target-height="115.5" target-width="73.899994" target-x="140.3" target-y="219"></path></mask><mask height="81.02612" id="mask4" maskUnits="userSpaceOnUse" node-id="213" width="69.48901" x="135.79938" y="257.47723"><path d="M 140.30 334.50 L 142.00 312.70 L 143.50 298.30 L 145.00 289.30 L 147.20 280.50 L 149.60 272.70 L 152.40 265.20 L 155.00 259.00 L 159.80 249.20 L 163.80 242.20 L 167.40 236.90 L 171.10 232.30 L 174.40 229.00 L 177.70 226.20 L 180.40 224.30 L 187.00 220.70 L 192.40 219.30 L 195.40 219.00 L 201.40 219.50 L 204.20 220.30 L 206.70 221.60 L 208.80 223.30 L 210.50 225.20 L 211.90 227.30 L 212.90 229.70 L 213.80 233.00 L 214.20 237.10 L 214.10 242.20 L 213.50 245.40 L 212.60 248.40 L 211.30 250.90 L 207.70 255.40 L 202.00 259.80 L 195.30 263.40 L 190.80 266.20 L 180.60 273.50 L 169.70 282.80 L 164.40 288.00 L 159.80 293.10 L 156.40 297.60 L 153.10 302.90 L 149.80 309.20 L 146.50 316.40 L 143.40 324.80 L 140.30 334.50 Z" fill="#ffffff" fill-rule="evenodd" node-id="217" stroke="none" target-height="115.5" target-width="73.899994" target-x="140.3" target-y="219"></path></mask><mask height="62.84958" id="mask-16" maskUnits="userSpaceOnUse" node-id="113" width="76.42497" x="154.07184" y="187.61548"><path d="M 160.90 247.20 L 169.50 231.70 L 176.70 219.60 L 182.60 210.30 L 187.50 203.50 L 191.60 198.60 L 194.80 195.30 L 199.00 191.90 L 203.20 189.20 L 207.40 187.10 L 211.90 185.50 L 216.10 184.40 L 220.00 183.70 L 224.10 183.50 L 227.50 183.80 L 230.40 184.40 L 232.40 185.10 L 234.20 186.20 L 237.20 189.20 L 238.40 191.00 L 239.90 195.10 L 240.30 199.20 L 240.00 201.20 L 238.40 204.90 L 236.60 207.20 L 234.80 208.80 L 232.80 210.10 L 230.40 211.10 L 224.10 212.60 L 207.90 215.70 L 202.70 217.10 L 194.20 220.20 L 185.00 224.40 L 175.60 230.50 L 171.10 234.20 L 165.50 240.80 L 160.90 247.20 Z" fill="#ffffff" fill-rule="evenodd" node-id="224" stroke="none" target-height="63.699997" target-width="79.40001" target-x="160.9" target-y="183.5"></path></mask><mask height="38.135742" id="mask5" maskUnits="userSpaceOnUse" node-id="228" width="75.31113" x="173.97925" y="192.36932"><path d="M 160.90 247.20 L 169.50 231.70 L 176.70 219.60 L 182.60 210.30 L 187.50 203.50 L 191.60 198.60 L 194.80 195.30 L 199.00 191.90 L 203.20 189.20 L 207.40 187.10 L 211.90 185.50 L 216.10 184.40 L 220.00 183.70 L 224.10 183.50 L 227.50 183.80 L 230.40 184.40 L 232.40 185.10 L 234.20 186.20 L 237.20 189.20 L 238.40 191.00 L 239.90 195.10 L 240.30 199.20 L 240.00 201.20 L 238.40 204.90 L 236.60 207.20 L 234.80 208.80 L 232.80 210.10 L 230.40 211.10 L 224.10 212.60 L 207.90 215.70 L 202.70 217.10 L 194.20 220.20 L 185.00 224.40 L 175.60 230.50 L 171.10 234.20 L 165.50 240.80 L 160.90 247.20 Z" fill="#ffffff" fill-rule="evenodd" node-id="232" stroke="none" target-height="63.699997" target-width="79.40001" target-x="160.9" target-y="183.5"></path></mask><mask height="140.76613" id="mask-18" maskUnits="userSpaceOnUse" node-id="119" width="86.14782" x="59.202293" y="156.15697"><path d="M 137.70 283.20 L 134.70 270.10 L 131.70 259.30 L 128.80 250.40 L 126.10 243.20 L 123.50 237.40 L 121.00 233.00 L 117.40 227.60 L 113.70 222.80 L 109.90 218.60 L 106.00 215.00 L 101.80 211.60 L 97.60 208.80 L 93.40 206.40 L 83.80 202.20 L 78.90 199.60 L 73.30 195.50 L 71.20 193.30 L 69.50 190.90 L 68.20 188.30 L 67.50 185.50 L 67.40 182.60 L 67.70 179.70 L 68.50 177.00 L 69.80 174.40 L 71.50 172.10 L 73.80 170.00 L 76.40 168.30 L 79.60 167.10 L 83.40 166.20 L 87.30 165.90 L 91.20 166.00 L 95.10 166.50 L 98.90 167.40 L 102.80 169.00 L 106.70 171.10 L 110.30 173.70 L 113.90 177.20 L 117.70 181.50 L 120.30 185.30 L 123.00 190.50 L 128.00 202.60 L 132.40 216.50 L 134.30 223.60 L 137.30 237.30 L 139.00 249.00 L 139.20 253.40 L 139.00 264.40 L 137.70 283.20 Z" fill="#ffffff" fill-rule="evenodd" node-id="239" stroke="none" target-height="117.30002" target-width="71.799995" target-x="67.4" target-y="165.9"></path></mask><mask height="129.60036" id="mask6" maskUnits="userSpaceOnUse" node-id="243" width="57.144157" x="86.344826" y="168.50731"><path d="M 137.70 283.20 L 134.70 270.10 L 131.70 259.30 L 128.80 250.40 L 126.10 243.20 L 123.50 237.40 L 121.00 233.00 L 117.40 227.60 L 113.70 222.80 L 109.90 218.60 L 106.00 215.00 L 101.80 211.60 L 97.60 208.80 L 93.40 206.40 L 83.80 202.20 L 78.90 199.60 L 73.30 195.50 L 71.20 193.30 L 69.50 190.90 L 68.20 188.30 L 67.50 185.50 L 67.40 182.60 L 67.70 179.70 L 68.50 177.00 L 69.80 174.40 L 71.50 172.10 L 73.80 170.00 L 76.40 168.30 L 79.60 167.10 L 83.40 166.20 L 87.30 165.90 L 91.20 166.00 L 95.10 166.50 L 98.90 167.40 L 102.80 169.00 L 106.70 171.10 L 110.30 173.70 L 113.90 177.20 L 117.70 181.50 L 120.30 185.30 L 123.00 190.50 L 128.00 202.60 L 132.40 216.50 L 134.30 223.60 L 137.30 237.30 L 139.00 249.00 L 139.20 253.40 L 139.00 264.40 L 137.70 283.20 Z" fill="#ffffff" fill-rule="evenodd" node-id="247" stroke="none" target-height="117.30002" target-width="71.799995" target-x="67.4" target-y="165.9"></path></mask><mask height="130.32753" id="mask7" maskUnits="userSpaceOnUse" node-id="251" width="91.766014" x="53.35801" y="164.42058"><path d="M 137.70 283.20 L 134.70 270.10 L 131.70 259.30 L 128.80 250.40 L 126.10 243.20 L 123.50 237.40 L 121.00 233.00 L 117.40 227.60 L 113.70 222.80 L 109.90 218.60 L 106.00 215.00 L 101.80 211.60 L 97.60 208.80 L 93.40 206.40 L 83.80 202.20 L 78.90 199.60 L 73.30 195.50 L 71.20 193.30 L 69.50 190.90 L 68.20 188.30 L 67.50 185.50 L 67.40 182.60 L 67.70 179.70 L 68.50 177.00 L 69.80 174.40 L 71.50 172.10 L 73.80 170.00 L 76.40 168.30 L 79.60 167.10 L 83.40 166.20 L 87.30 165.90 L 91.20 166.00 L 95.10 166.50 L 98.90 167.40 L 102.80 169.00 L 106.70 171.10 L 110.30 173.70 L 113.90 177.20 L 117.70 181.50 L 120.30 185.30 L 123.00 190.50 L 128.00 202.60 L 132.40 216.50 L 134.30 223.60 L 137.30 237.30 L 139.00 249.00 L 139.20 253.40 L 139.00 264.40 L 137.70 283.20 Z" fill="#ffffff" fill-rule="evenodd" node-id="255" stroke="none" target-height="117.30002" target-width="71.799995" target-x="67.4" target-y="165.9"></path></mask><mask height="133.32187" id="mask-20" maskUnits="userSpaceOnUse" node-id="126" width="54.106926" x="90.32392" y="123.20281"><path d="M 141.10 243.90 L 141.00 222.10 L 140.50 204.50 L 139.60 190.50 L 138.30 179.60 L 136.90 171.40 L 135.30 165.20 L 133.00 158.40 L 130.50 152.70 L 128.00 148.00 L 125.70 144.50 L 121.20 139.50 L 118.90 137.80 L 116.30 136.40 L 113.70 135.60 L 111.00 135.20 L 108.20 135.40 L 105.40 136.10 L 103.10 137.00 L 101.20 138.20 L 99.80 139.60 L 98.60 141.20 L 97.30 144.80 L 97.20 146.80 L 97.60 149.50 L 98.50 152.20 L 100.00 154.80 L 116.20 178.30 L 121.90 187.70 L 126.30 196.20 L 128.80 202.40 L 132.00 211.80 L 136.00 225.30 L 141.10 243.90 Z" fill="#ffffff" fill-rule="evenodd" node-id="262" stroke="none" target-height="108.7" target-width="43.90001" target-x="97.2" target-y="135.2"></path></mask><mask height="87.19595" id="mask8" maskUnits="userSpaceOnUse" node-id="266" width="42.541405" x="92.61143" y="132.61351"><path d="M 139.20 244.70 L 139.90 222.90 L 140.00 205.30 L 139.50 191.30 L 138.70 180.40 L 137.50 172.10 L 136.20 165.90 L 134.00 159.00 L 131.80 153.20 L 129.40 148.40 L 127.30 144.80 L 122.90 139.70 L 120.70 137.90 L 118.20 136.40 L 115.60 135.50 L 112.90 135.00 L 110.10 135.10 L 107.20 135.70 L 104.90 136.60 L 103.10 137.70 L 101.60 139.00 L 100.30 140.60 L 98.90 144.20 L 98.70 146.20 L 99.00 148.80 L 99.80 151.50 L 101.30 154.20 L 116.60 178.20 L 122.00 187.80 L 126.10 196.50 L 128.30 202.80 L 131.20 212.30 L 134.80 225.90 L 139.20 244.70 Z" fill="#ffffff" fill-rule="evenodd" node-id="270" stroke="none" target-height="109.7" target-width="41.300003" target-x="98.7" target-y="135"></path></mask><mask height="76.20325" id="mask-22" maskUnits="userSpaceOnUse" node-id="132" width="107.62496" x="41.36358" y="271.13416"><path d="M 137.20 319.30 L 131.30 311.50 L 125.50 304.50 L 119.60 298.50 L 113.80 293.20 L 107.90 288.70 L 102.00 284.90 L 96.00 281.70 L 90.10 279.10 L 85.10 277.50 L 80.60 276.40 L 73.00 275.50 L 68.10 275.70 L 64.00 276.50 L 60.50 277.70 L 57.30 279.40 L 54.80 281.30 L 52.90 283.30 L 51.40 285.60 L 50.60 287.90 L 50.30 290.00 L 50.60 292.80 L 51.30 295.20 L 52.50 297.30 L 54.00 299.20 L 56.00 300.70 L 58.40 301.90 L 61.00 302.80 L 67.40 303.50 L 81.00 303.30 L 91.90 304.20 L 97.70 305.40 L 101.50 306.60 L 109.20 310.10 L 113.80 313.00 L 118.60 316.50 L 123.60 320.80 L 128.90 326.00 L 134.30 332.00 L 140.00 339.00 L 137.20 319.30 Z" fill="#ffffff" fill-rule="evenodd" node-id="277" stroke="none" target-height="63.5" target-width="89.7" target-x="50.3" target-y="275.5"></path></mask><mask height="52.069763" id="mask9" maskUnits="userSpaceOnUse" node-id="281" width="106.24481" x="42.628723" y="291.2565"><path d="M 137.20 319.30 L 131.30 311.50 L 125.50 304.50 L 119.60 298.50 L 113.80 293.20 L 107.90 288.70 L 102.00 284.90 L 96.00 281.70 L 90.10 279.10 L 85.10 277.50 L 80.60 276.40 L 73.00 275.50 L 68.10 275.70 L 64.00 276.50 L 60.50 277.70 L 57.30 279.40 L 54.80 281.30 L 52.90 283.30 L 51.40 285.60 L 50.60 287.90 L 50.30 290.00 L 50.60 292.80 L 51.30 295.20 L 52.50 297.30 L 54.00 299.20 L 56.00 300.70 L 58.40 301.90 L 61.00 302.80 L 67.40 303.50 L 81.00 303.30 L 91.90 304.20 L 97.70 305.40 L 101.50 306.60 L 109.20 310.10 L 113.80 313.00 L 118.60 316.50 L 123.60 320.80 L 128.90 326.00 L 134.30 332.00 L 140.00 339.00 L 137.20 319.30 Z" fill="#ffffff" fill-rule="evenodd" node-id="285" stroke="none" target-height="63.5" target-width="89.7" target-x="50.3" target-y="275.5"></path></mask><mask height="50.047592" id="mask-24" maskUnits="userSpaceOnUse" node-id="140" width="58.46289" x="607.46045" y="175.0382"><path d="M 654.30 203.00 L 654.10 207.40 L 653.50 211.50 L 652.40 215.50 L 651.00 219.30 L 647.20 226.50 L 642.00 232.70 L 635.80 237.80 L 628.70 241.70 L 624.80 243.10 L 620.90 244.10 L 616.70 244.80 L 612.30 245.00 L 608.00 244.80 L 603.80 244.10 L 599.80 243.10 L 592.30 239.90 L 585.60 235.40 L 579.90 229.70 L 575.40 223.00 L 573.60 219.30 L 572.20 215.50 L 571.20 211.50 L 570.60 207.40 L 570.30 203.00 L 570.60 198.60 L 571.20 194.50 L 572.20 190.50 L 575.40 183.00 L 579.90 176.30 L 585.60 170.60 L 588.80 168.20 L 596.00 164.30 L 599.80 162.90 L 603.80 161.90 L 608.00 161.20 L 612.30 161.00 L 616.70 161.20 L 620.90 161.90 L 624.80 162.90 L 628.70 164.30 L 635.80 168.20 L 642.00 173.30 L 647.20 179.50 L 651.00 186.70 L 652.40 190.50 L 653.50 194.50 L 654.10 198.60 L 654.30 203.00 Z" fill="#ffffff" fill-rule="evenodd" node-id="292" stroke="none" target-height="84" target-width="84" target-x="570.3" target-y="161"></path></mask></defs><g node-id="510"><g node-id="511"><g node-id="512"><g node-id="521"><path d="M 451.50 90.50 L 443.20 80.60 L 434.60 71.50 L 425.90 62.90 L 416.90 54.90 L 407.60 47.60 L 398.10 40.80 L 388.30 34.50 L 378.20 28.80 L 367.90 23.60 L 357.20 19.00 L 346.30 14.90 L 335.00 11.30 L 323.30 8.20 L 311.30 5.60 L 298.90 3.60 L 286.00 2.20 L 272.70 1.30 L 259.00 1.00 L 244.30 1.30 L 230.40 2.20 L 217.20 3.60 L 204.70 5.60 L 192.70 8.00 L 180.60 11.10 L 169.10 14.60 L 158.10 18.70 L 147.70 23.10 L 137.70 28.10 L 127.90 33.60 L 118.50 39.50 L 109.50 45.90 L 100.90 52.60 L 92.70 59.90 L 84.80 67.50 L 77.30 75.50 L 70.10 83.90 L 63.20 92.70 L 56.60 102.00 L 50.40 111.40 L 44.50 121.20 L 38.90 131.50 L 33.40 142.10 L 28.30 153.10 L 20.10 173.20 L 13.20 194.20 L 10.30 204.90 L 5.60 226.50 L 2.30 248.40 L 0.60 269.90 L 0.30 280.50 L 0.50 291.20 L 1.00 301.60 L 2.00 311.70 L 3.40 321.50 L 5.30 331.40 L 7.60 340.80 L 10.30 349.70 L 13.40 358.30 L 16.30 365.10 L 19.50 371.50 L 23.00 377.50 L 26.70 383.30 L 30.80 388.70 L 35.20 393.90 L 39.90 398.70 L 44.90 403.00 L 50.30 407.10 L 56.00 410.70 L 66.30 416.40 L 77.00 421.70 L 88.00 426.60 L 99.30 431.00 L 110.80 434.90 L 122.80 438.40 L 135.20 441.50 L 148.20 444.20 L 161.20 446.30 L 174.70 448.00 L 189.00 449.20 L 204.00 450.00 L 218.70 450.30 L 234.30 450.20 L 250.70 449.60 L 267.90 448.50 L 302.60 445.00 L 321.40 442.50 L 357.70 437.10 L 372.60 435.50 L 386.20 434.50 L 399.90 434.00 L 412.40 434.00 L 423.90 434.40 L 435.50 435.30 L 456.10 437.80 L 470.70 440.30 L 522.70 451.20 L 535.20 453.20 L 552.30 454.80 L 561.30 455.00 L 570.20 454.80 L 579.70 454.00 L 589.80 452.70 L 603.30 450.40 L 629.80 444.90 L 642.80 441.70 L 655.50 438.00 L 667.70 433.90 L 676.70 430.50 L 685.40 426.70 L 693.80 422.70 L 701.90 418.30 L 709.70 413.50 L 717.10 408.30 L 724.10 402.70 L 730.80 396.70 L 735.80 391.60 L 740.50 386.20 L 744.90 380.40 L 749.00 374.30 L 752.80 367.80 L 756.20 361.20 L 759.30 354.10 L 762.00 346.60 L 764.40 338.70 L 766.40 330.10 L 768.00 321.00 L 769.00 312.00 L 769.30 303.40 L 769.10 294.90 L 768.30 286.40 L 767.00 278.20 L 765.30 270.10 L 763.10 262.30 L 757.50 247.10 L 750.70 232.70 L 745.40 223.50 L 739.80 214.80 L 733.80 206.60 L 727.50 198.60 L 714.70 184.30 L 708.00 177.70 L 695.40 166.40 L 686.10 158.90 L 678.00 153.10 L 674.50 151.00 L 670.70 149.20 L 666.80 147.90 L 662.70 146.90 L 657.10 146.00 L 651.20 145.70 L 644.80 145.90 L 631.90 147.30 L 614.70 150.80 L 582.10 158.60 L 571.20 160.90 L 560.40 162.70 L 553.10 163.60 L 539.20 164.20 L 532.40 163.70 L 525.80 162.80 L 519.40 161.20 L 511.70 158.70 L 504.50 155.60 L 497.80 152.20 L 491.50 148.30 L 485.60 143.90 L 480.10 139.10 L 475.00 133.80 L 470.20 128.00 L 465.70 121.70 L 461.70 114.90 L 457.90 107.40 L 454.50 99.30 L 451.50 90.50 Z" fill="#f3f7ff" fill-rule="evenodd" group-id="1,2,3,12" node-id="302" stroke="none" target-height="454" target-width="769" target-x="0.3" target-y="1"></path></g><g node-id="522"><path d="M 0.30 363.00 L 791.30 363.00 L 791.30 475.00 L 0.30 475.00 Z" fill="#d0defe" fill-rule="evenodd" group-id="1,2,3,13" id="矩形" node-id="26" stroke="none" target-height="112" target-width="791" target-x="0.3" target-y="363"></path></g><path d="M 0.30 363.00 L 791.30 363.00 L 791.30 346.00 L 0.30 346.00 Z" fill="#c4d6ff" fill-rule="evenodd" group-id="1,2,3,14" id="矩形" node-id="27" stroke="none" target-height="17" target-width="791" target-x="0.3" target-y="346"></path></g><path d="M 632.80 382.50 L 671.80 382.50 L 671.80 392.50 L 632.80 392.50 Z" fill="#d8d8d8" fill-rule="evenodd" group-id="1,2" id="矩形" node-id="28" stroke="#979797" stroke-linecap="butt" stroke-width="1" target-height="10" target-width="39" target-x="632.8" target-y="382.5"></path><path d="M 632.80 403.50 L 671.80 403.50 L 671.80 413.50 L 632.80 413.50 Z" fill="#d8d8d8" fill-rule="evenodd" group-id="1,2" id="矩形" node-id="29" stroke="#979797" stroke-linecap="butt" stroke-width="1" target-height="10" target-width="39" target-x="632.8" target-y="403.5"></path><path d="M 628.80 393.50 L 667.80 393.50 L 667.80 403.50 L 628.80 403.50 Z" fill="#d8d8d8" fill-rule="evenodd" group-id="1,2" id="矩形" node-id="30" stroke="#979797" stroke-linecap="butt" stroke-width="1" target-height="10" target-width="39" target-x="628.8" target-y="393.5"></path><g node-id="513"><path d="M 547.30 142.00 L 691.30 142.00 L 691.30 423.00 L 547.30 423.00 Z" fill="#bcd4ff" fill-rule="evenodd" group-id="1,2,4" id="矩形" node-id="32" stroke="none" target-height="281" target-width="144" target-x="547.3" target-y="142"></path><path d="M 552.30 152.50 L 683.30 152.50 L 683.30 414.50 L 552.30 414.50 Z" fill="#edf4ff" fill-rule="evenodd" group-id="1,2,4" id="矩形" node-id="33" stroke="none" target-height="262" target-width="131" target-x="552.3" target-y="152.5"></path><path d="M 653.30 152.50 L 683.30 152.50 L 683.30 414.50 L 653.30 414.50 Z" fill="#9ebef8" fill-rule="evenodd" group-id="1,2,4" id="矩形" node-id="34" stroke="none" target-height="262" target-width="30" target-x="653.3" target-y="152.5"></path><path d="M 603.30 278.00 L 683.30 278.00 L 683.30 286.00 L 603.30 286.00 Z" fill="#bcd4ff" fill-rule="evenodd" group-id="1,2,4" id="矩形" node-id="35" stroke="none" target-height="8" target-width="80" target-x="603.3" target-y="278"></path><path d="M 603.30 345.00 L 683.30 345.00 L 683.30 353.00 L 603.30 353.00 Z" fill="#bcd4ff" fill-rule="evenodd" group-id="1,2,4" id="矩形" node-id="36" stroke="none" target-height="8" target-width="80" target-x="603.3" target-y="345"></path><g node-id="524"><path d="M 639.30 295.00 L 679.30 295.00 L 679.30 345.00 L 639.30 345.00 Z" fill="#ffecc8" fill-rule="evenodd" group-id="1,2,4,15" id="矩形" node-id="38" stroke="none" target-height="50" target-width="40" target-x="639.3" target-y="295"></path><path d="M 668.30 295.00 L 679.30 295.00 L 679.30 345.00 L 668.30 345.00 Z" fill="#ffe2ac" fill-rule="evenodd" group-id="1,2,4,15" id="矩形" node-id="39" stroke="none" target-height="50" target-width="11" target-x="668.3" target-y="295"></path><path d="M 624.30 295.00 L 664.30 295.00 L 664.30 345.00 L 624.30 345.00 Z" fill="#d3e1ff" fill-rule="evenodd" group-id="1,2,4,15" id="矩形" node-id="40" stroke="none" target-height="50" target-width="40" target-x="624.3" target-y="295"></path><path d="M 653.30 295.00 L 664.30 295.00 L 664.30 345.00 L 653.30 345.00 Z" fill="#bdd2ff" fill-rule="evenodd" group-id="1,2,4,15" id="矩形" node-id="41" stroke="none" target-height="50" target-width="11" target-x="653.3" target-y="295"></path><path d="M 610.30 303.00 L 650.30 303.00 L 650.30 345.00 L 610.30 345.00 Z" fill="#ffecc8" fill-rule="evenodd" group-id="1,2,4,15" id="矩形" node-id="42" stroke="none" target-height="42" target-width="40" target-x="610.3" target-y="303"></path><path d="M 639.30 303.00 L 650.30 303.00 L 650.30 345.00 L 639.30 345.00 Z" fill="#ffe2ac" fill-rule="evenodd" group-id="1,2,4,15" id="矩形" node-id="43" stroke="none" target-height="42" target-width="11" target-x="639.3" target-y="303"></path></g><g node-id="525"><path d="M 639.30 364.00 L 679.30 364.00 L 679.30 414.00 L 639.30 414.00 Z" fill="#ffecc8" fill-rule="evenodd" group-id="1,2,4,16" id="矩形" node-id="45" stroke="none" target-height="50" target-width="40" target-x="639.3" target-y="364"></path><path d="M 668.30 364.00 L 679.30 364.00 L 679.30 414.00 L 668.30 414.00 Z" fill="#ffe2ac" fill-rule="evenodd" group-id="1,2,4,16" id="矩形" node-id="46" stroke="none" target-height="50" target-width="11" target-x="668.3" target-y="364"></path><path d="M 624.30 364.00 L 664.30 364.00 L 664.30 414.00 L 624.30 414.00 Z" fill="#d3e1ff" fill-rule="evenodd" group-id="1,2,4,16" id="矩形" node-id="47" stroke="none" target-height="50" target-width="40" target-x="624.3" target-y="364"></path><path d="M 653.30 364.00 L 664.30 364.00 L 664.30 414.00 L 653.30 414.00 Z" fill="#bdd2ff" fill-rule="evenodd" group-id="1,2,4,16" id="矩形" node-id="48" stroke="none" target-height="50" target-width="11" target-x="653.3" target-y="364"></path><path d="M 610.30 372.00 L 650.30 372.00 L 650.30 414.00 L 610.30 414.00 Z" fill="#ffecc8" fill-rule="evenodd" group-id="1,2,4,16" id="矩形" node-id="49" stroke="none" target-height="42" target-width="40" target-x="610.3" target-y="372"></path><path d="M 639.30 372.00 L 650.30 372.00 L 650.30 414.00 L 639.30 414.00 Z" fill="#ffe2ac" fill-rule="evenodd" group-id="1,2,4,16" id="矩形" node-id="50" stroke="none" target-height="42" target-width="11" target-x="639.3" target-y="372"></path></g><g node-id="526"><path d="M 639.30 228.00 L 679.30 228.00 L 679.30 278.00 L 639.30 278.00 Z" fill="#ffecc8" fill-rule="evenodd" group-id="1,2,4,17" id="矩形" node-id="52" stroke="none" target-height="50" target-width="40" target-x="639.3" target-y="228"></path><path d="M 668.30 228.00 L 679.30 228.00 L 679.30 278.00 L 668.30 278.00 Z" fill="#ffe2ac" fill-rule="evenodd" group-id="1,2,4,17" id="矩形" node-id="53" stroke="none" target-height="50" target-width="11" target-x="668.3" target-y="228"></path><path d="M 624.30 228.00 L 664.30 228.00 L 664.30 278.00 L 624.30 278.00 Z" fill="#d3e1ff" fill-rule="evenodd" group-id="1,2,4,17" id="矩形" node-id="54" stroke="none" target-height="50" target-width="40" target-x="624.3" target-y="228"></path><path d="M 653.30 228.00 L 664.30 228.00 L 664.30 278.00 L 653.30 278.00 Z" fill="#bdd2ff" fill-rule="evenodd" group-id="1,2,4,17" id="矩形" node-id="55" stroke="none" target-height="50" target-width="11" target-x="653.3" target-y="228"></path><path d="M 610.30 236.00 L 650.30 236.00 L 650.30 278.00 L 610.30 278.00 Z" fill="#ffecc8" fill-rule="evenodd" group-id="1,2,4,17" id="矩形" node-id="56" stroke="none" target-height="42" target-width="40" target-x="610.3" target-y="236"></path><path d="M 639.30 236.00 L 650.30 236.00 L 650.30 278.00 L 639.30 278.00 Z" fill="#ffe2ac" fill-rule="evenodd" group-id="1,2,4,17" id="矩形" node-id="57" stroke="none" target-height="42" target-width="11" target-x="639.3" target-y="236"></path></g></g><path d="M 206.30 131.00 L 586.30 131.00 L 589.60 131.30 L 592.60 132.10 L 595.40 133.50 L 597.90 135.20 L 600.10 137.40 L 601.90 139.90 L 603.20 142.70 L 604.00 145.70 L 604.30 149.00 L 604.30 418.00 L 188.30 418.00 L 188.30 149.00 L 188.60 145.70 L 189.50 142.70 L 190.80 139.90 L 192.60 137.40 L 194.70 135.20 L 197.20 133.50 L 200.00 132.10 L 203.00 131.30 L 206.30 131.00 Z" fill="#dde9ff" fill-rule="evenodd" group-id="1,2" id="矩形" node-id="58" stroke="none" target-height="287" target-width="416" target-x="188.3" target-y="131"></path><path d="M 206.30 131.00 L 586.30 131.00 L 589.60 131.30 L 592.60 132.10 L 595.40 133.50 L 597.90 135.20 L 600.10 137.40 L 601.90 139.90 L 603.20 142.70 L 604.00 145.70 L 604.30 149.00 L 604.30 164.00 L 188.30 164.00 L 188.30 149.00 L 188.60 145.70 L 189.50 142.70 L 190.80 139.90 L 192.60 137.40 L 194.70 135.20 L 197.20 133.50 L 200.00 132.10 L 203.00 131.30 L 206.30 131.00 Z" fill="#ffecc8" fill-rule="evenodd" group-id="1,2" id="矩形" node-id="59" stroke="none" target-height="33" target-width="416" target-x="188.3" target-y="131"></path><path d="M 206.30 131.00 L 586.30 131.00 L 589.60 131.30 L 592.60 132.10 L 595.40 133.50 L 597.90 135.20 L 600.10 137.40 L 601.90 139.90 L 603.20 142.70 L 604.00 145.70 L 604.30 149.00 L 604.30 161.00 L 188.30 161.00 L 188.30 149.00 L 188.60 145.70 L 189.50 142.70 L 190.80 139.90 L 192.60 137.40 L 194.70 135.20 L 197.20 133.50 L 200.00 132.10 L 203.00 131.30 L 206.30 131.00 Z" fill="#a4c3fc" fill-rule="evenodd" group-id="1,2" id="矩形" node-id="60" stroke="none" target-height="30" target-width="416" target-x="188.3" target-y="131"></path><path d="M 214.20 146.80 L 213.90 148.30 L 213.10 149.60 L 211.80 150.40 L 210.20 150.80 L 208.70 150.40 L 207.40 149.60 L 206.50 148.30 L 206.20 146.80 L 206.50 145.20 L 207.40 143.90 L 208.70 143.10 L 210.20 142.80 L 211.80 143.10 L 213.10 143.90 L 213.90 145.20 L 214.20 146.80 Z" fill="#ffbb3c" fill-rule="evenodd" group-id="1,2" id="椭圆形" node-id="61" stroke="none" target-height="8" target-width="8" target-x="206.2" target-y="142.8"></path><path d="M 227.30 146.00 L 227.00 147.60 L 226.20 148.80 L 224.90 149.70 L 223.30 150.00 L 221.80 149.70 L 220.50 148.80 L 219.70 147.60 L 219.30 146.00 L 219.70 144.40 L 220.50 143.20 L 221.80 142.30 L 223.30 142.00 L 224.90 142.30 L 226.20 143.20 L 227.00 144.40 L 227.30 146.00 Z" fill="#ecf2ff" fill-rule="evenodd" group-id="1,2" id="椭圆形" node-id="62" stroke="none" target-height="8" target-width="8" target-x="219.3" target-y="142"></path><g node-id="514"><g node-id="527"><path d="M 211.10 179.00 L 581.00 179.00 L 581.00 359.30 L 613.30 359.30 L 623.20 376.20 L 631.80 389.80 L 639.20 400.70 L 645.40 409.10 L 650.70 415.50 L 655.20 420.20 L 658.90 423.50 L 662.00 425.70 L 329.90 422.50 L 326.20 422.20 L 322.70 421.40 L 319.30 420.00 L 316.10 418.20 L 313.30 416.00 L 310.70 413.20 L 299.80 399.30 L 292.10 389.00 L 287.10 381.50 L 279.30 368.30 L 275.30 363.50 L 271.20 360.80 L 268.80 360.00 L 265.90 359.50 L 262.20 359.30 L 259.90 359.60 L 257.60 360.50 L 255.50 361.90 L 251.80 366.10 L 250.00 369.00 L 247.70 373.50 L 243.70 384.10 L 236.60 408.50 L 235.40 411.20 L 233.90 413.30 L 232.00 414.90 L 229.90 416.30 L 227.70 417.20 L 225.30 417.70 L 220.50 417.80 L 216.00 416.60 L 212.60 414.10 L 211.40 412.50 L 210.60 410.70 L 210.30 408.50 L 211.10 179.00 Z" fill="#ffffff" fill-rule="evenodd" group-id="1,2,5,18" node-id="355" stroke="none" target-height="246.70001" target-width="451.7" target-x="210.3" target-y="179"></path></g><g node-id="528"><path d="M 261.10 359.40 L 673.10 359.40 L 673.10 446.40 L 261.10 446.40 Z" fill="#ecf2ff" fill-rule="evenodd" group-id="1,2,5,19" id="矩形" node-id="67" stroke="none" target-height="87" target-width="411.99997" target-x="261.1" target-y="359.4"></path></g><path d="M 571.80 187.90 L 571.80 359.80 L 570.80 359.80 L 570.80 188.90 L 224.80 188.90 L 224.80 402.90 L 238.30 402.90 L 238.30 403.90 L 223.80 403.90 L 223.80 187.90 Z" fill="#ffeac2" fill-rule="nonzero" group-id="1,2,5,20" id="路径" node-id="68" stroke="none" target-height="216" target-width="348" target-x="223.8" target-y="187.9"></path></g><path d="M 333.50 334.00 L 333.50 309.70 L 350.90 309.70 L 350.90 299.60 L 333.50 299.60 L 333.50 226.90 L 321.90 226.90 L 267.90 298.00 L 267.90 309.70 L 321.80 309.70 L 321.80 334.00 L 333.50 334.00 Z M 321.80 299.60 L 278.30 299.60 L 321.30 242.90 L 321.80 242.90 L 321.80 299.60 Z M 399.30 336.10 L 404.10 335.80 L 408.40 335.00 L 412.40 333.70 L 416.10 331.90 L 419.50 329.60 L 422.60 326.70 L 425.60 323.30 L 428.30 319.10 L 430.70 314.50 L 432.80 309.20 L 434.50 303.20 L 435.70 296.50 L 436.60 288.90 L 436.80 280.40 L 436.60 272.00 L 435.70 264.40 L 434.50 257.70 L 432.80 251.70 L 430.70 246.40 L 428.30 241.70 L 425.60 237.60 L 422.60 234.20 L 419.50 231.30 L 416.10 229.00 L 412.40 227.20 L 408.40 225.90 L 404.10 225.10 L 399.30 224.80 L 394.50 225.10 L 390.10 225.90 L 386.10 227.20 L 382.50 229.00 L 379.10 231.30 L 375.90 234.20 L 373.00 237.60 L 370.40 241.70 L 367.90 246.40 L 365.90 251.70 L 364.20 257.70 L 362.90 264.40 L 362.10 272.00 L 361.80 280.40 L 362.10 288.90 L 362.90 296.50 L 364.20 303.20 L 365.90 309.20 L 367.90 314.50 L 370.40 319.10 L 373.00 323.20 L 375.90 326.70 L 379.10 329.50 L 382.50 331.90 L 386.10 333.70 L 390.10 335.00 L 394.50 335.80 L 399.30 336.10 Z M 399.30 325.60 L 395.80 325.30 L 392.70 324.60 L 389.80 323.50 L 387.20 321.90 L 384.70 319.80 L 382.50 317.20 L 380.50 314.00 L 378.60 310.10 L 377.10 305.90 L 375.90 300.90 L 375.00 295.10 L 374.30 288.30 L 374.10 280.40 L 374.40 272.50 L 375.00 265.70 L 375.90 259.80 L 377.20 254.90 L 378.60 250.70 L 380.50 246.90 L 382.50 243.70 L 384.80 241.10 L 387.20 239.00 L 389.80 237.40 L 392.70 236.20 L 395.80 235.50 L 399.30 235.30 L 402.80 235.50 L 406.00 236.20 L 408.80 237.40 L 411.50 239.00 L 413.90 241.10 L 416.10 243.70 L 418.20 246.90 L 420.00 250.70 L 421.50 254.90 L 422.80 259.80 L 423.80 265.70 L 424.40 272.50 L 424.70 280.40 L 424.40 288.30 L 423.80 295.10 L 422.80 300.90 L 421.50 305.90 L 420.00 310.10 L 418.20 314.00 L 416.10 317.20 L 413.90 319.80 L 411.50 321.90 L 408.90 323.50 L 406.00 324.60 L 402.80 325.30 L 399.30 325.60 Z M 513.50 334.00 L 513.50 309.70 L 530.90 309.70 L 530.90 299.60 L 513.50 299.60 L 513.50 226.90 L 501.90 226.90 L 447.90 298.00 L 447.90 309.70 L 501.80 309.70 L 501.80 334.00 L 513.50 334.00 Z M 501.80 299.60 L 458.30 299.60 L 501.30 242.90 L 501.80 242.90 L 501.80 299.60 Z" fill="#ffeac2" fill-rule="nonzero" group-id="1,2" id="404" node-id="69" stroke="none" target-height="111.3" target-width="263.00003" target-x="267.9" target-y="224.8"></path><path d="M 330.50 331.00 L 330.50 306.70 L 347.90 306.70 L 347.90 296.60 L 330.50 296.60 L 330.50 223.90 L 318.90 223.90 L 264.90 295.00 L 264.90 306.70 L 318.80 306.70 L 318.80 331.00 L 330.50 331.00 Z M 318.80 296.60 L 275.30 296.60 L 318.30 239.90 L 318.80 239.90 L 318.80 296.60 Z M 396.30 333.10 L 401.10 332.80 L 405.40 332.00 L 409.40 330.70 L 413.10 328.90 L 416.50 326.60 L 419.60 323.70 L 422.60 320.30 L 425.30 316.10 L 427.70 311.50 L 429.80 306.20 L 431.50 300.20 L 432.70 293.50 L 433.60 285.90 L 433.80 277.40 L 433.60 269.00 L 432.70 261.40 L 431.50 254.70 L 429.80 248.70 L 427.70 243.40 L 425.30 238.70 L 422.60 234.60 L 419.60 231.20 L 416.50 228.30 L 413.10 226.00 L 409.40 224.20 L 405.40 222.90 L 401.10 222.10 L 396.30 221.80 L 391.50 222.10 L 387.10 222.90 L 383.10 224.20 L 379.50 226.00 L 376.10 228.30 L 372.90 231.20 L 370.00 234.60 L 367.40 238.70 L 364.90 243.40 L 362.90 248.70 L 361.20 254.70 L 359.90 261.40 L 359.10 269.00 L 358.80 277.40 L 359.10 285.90 L 359.90 293.50 L 361.20 300.20 L 362.90 306.20 L 364.90 311.50 L 367.40 316.10 L 370.00 320.20 L 372.90 323.70 L 376.10 326.50 L 379.50 328.90 L 383.10 330.70 L 387.10 332.00 L 391.50 332.80 L 396.30 333.10 Z M 396.30 322.60 L 392.80 322.30 L 389.70 321.60 L 386.80 320.50 L 384.20 318.90 L 381.70 316.80 L 379.50 314.20 L 377.50 311.00 L 375.60 307.10 L 374.10 302.90 L 372.90 297.90 L 372.00 292.10 L 371.30 285.30 L 371.10 277.40 L 371.40 269.50 L 372.00 262.70 L 372.90 256.80 L 374.20 251.90 L 375.60 247.70 L 377.50 243.90 L 379.50 240.70 L 381.80 238.10 L 384.20 236.00 L 386.80 234.40 L 389.70 233.20 L 392.80 232.50 L 396.30 232.30 L 399.80 232.50 L 403.00 233.20 L 405.80 234.40 L 408.50 236.00 L 410.90 238.10 L 413.10 240.70 L 415.20 243.90 L 417.00 247.70 L 418.50 251.90 L 419.80 256.80 L 420.80 262.70 L 421.40 269.50 L 421.70 277.40 L 421.40 285.30 L 420.80 292.10 L 419.80 297.90 L 418.50 302.90 L 417.00 307.10 L 415.20 311.00 L 413.10 314.20 L 410.90 316.80 L 408.50 318.90 L 405.90 320.50 L 403.00 321.60 L 399.80 322.30 L 396.30 322.60 Z M 510.50 331.00 L 510.50 306.70 L 527.90 306.70 L 527.90 296.60 L 510.50 296.60 L 510.50 223.90 L 498.90 223.90 L 444.90 295.00 L 444.90 306.70 L 498.80 306.70 L 498.80 331.00 L 510.50 331.00 Z M 498.80 296.60 L 455.30 296.60 L 498.30 239.90 L 498.80 239.90 L 498.80 296.60 Z" fill="#acc9ff" fill-rule="nonzero" group-id="1,2" id="404" node-id="70" stroke="none" target-height="111.3" target-width="263.00003" target-x="264.9" target-y="221.8"></path><path d="M 370.00 27.10 L 370.00 146.50 L 369.00 146.50 L 369.00 27.10 Z" fill="#6ea1ff" fill-rule="nonzero" group-id="1,2" id="路径-298" node-id="71" stroke="none" target-height="119.4" target-width="1" target-x="369" target-y="27.1"></path><g node-id="515"><g node-id="530"><path d="M 343.40 172.50 L 369.50 146.50 L 396.30 172.50 Z" fill="#ffd078" fill-rule="evenodd" group-id="1,2,6,21" node-id="372" stroke="none" target-height="26" target-width="52.899994" target-x="343.4" target-y="146.5"></path></g><path d="M 340.40 172.50 L 366.50 146.50 L 393.30 172.50 Z" fill="#ffbb3c" fill-rule="evenodd" group-id="1,2,6,22" id="路径-299" node-id="76" stroke="none" target-height="26" target-width="52.899994" target-x="340.4" target-y="146.5"></path></g><path d="M 254.50 0.80 L 255.50 0.80 L 255.30 69.50 L 254.30 69.50 Z" fill="#6ea1ff" fill-rule="nonzero" group-id="1,2" id="路径-300" node-id="77" stroke="none" target-height="68.7" target-width="1.199997" target-x="254.3" target-y="0.8"></path><g node-id="516"><g node-id="532"><path d="M 226.90 94.70 L 255.00 66.50 L 280.90 94.70 Z" fill="#d2e2ff" fill-rule="evenodd" group-id="1,2,7,23" node-id="383" stroke="none" target-height="28.199997" target-width="54" target-x="226.9" target-y="66.5"></path></g><path d="M 223.90 94.70 L 252.00 66.50 L 277.90 94.70 Z" fill="#a4c3fc" fill-rule="evenodd" group-id="1,2,7,24" id="路径-301" node-id="82" stroke="none" target-height="28.199997" target-width="54" target-x="223.9" target-y="66.5"></path></g><path d="M 464.30 73.00 L 574.30 73.00 L 576.50 73.30 L 578.40 74.10 L 580.00 75.30 L 581.20 77.00 L 582.00 78.90 L 582.30 81.00 L 582.30 153.00 L 603.00 175.50 L 464.40 175.90 L 461.10 175.60 L 458.10 174.80 L 455.30 173.50 L 452.80 171.70 L 450.60 169.60 L 448.80 167.10 L 447.50 164.30 L 446.60 161.30 L 446.30 158.00 L 446.30 91.00 L 446.60 87.70 L 447.50 84.70 L 448.80 81.90 L 450.60 79.40 L 452.70 77.20 L 455.20 75.50 L 458.00 74.10 L 461.00 73.30 L 464.30 73.00 Z" fill="#ffecc8" fill-rule="evenodd" group-id="1,2" id="矩形" node-id="83" stroke="none" target-height="102.899994" target-width="156.70001" target-x="446.3" target-y="73"></path><path d="M 460.30 70.00 L 570.30 70.00 L 572.50 70.30 L 574.40 71.10 L 576.00 72.30 L 577.20 74.00 L 578.00 75.90 L 578.30 78.00 L 578.30 150.00 L 599.00 172.50 L 460.40 172.90 L 457.10 172.60 L 454.10 171.80 L 451.30 170.50 L 448.80 168.70 L 446.60 166.60 L 444.80 164.10 L 443.50 161.30 L 442.60 158.30 L 442.30 155.00 L 442.30 88.00 L 442.60 84.70 L 443.50 81.70 L 444.80 78.90 L 446.60 76.40 L 448.70 74.20 L 451.20 72.50 L 454.00 71.10 L 457.00 70.30 L 460.30 70.00 Z" fill="#ebf2ff" fill-rule="evenodd" group-id="1,2" id="矩形" node-id="84" stroke="none" target-height="102.899994" target-width="156.70001" target-x="442.3" target-y="70"></path><path d="M 480.20 95.80 L 487.20 95.80 L 487.20 159.80 L 480.20 159.80 Z" fill="#ffffff" fill-rule="evenodd" group-id="1,2" id="矩形" node-id="85" stroke="none" target-height="64" target-width="7" target-x="480.2" target-y="95.8"></path><path d="M 497.30 95.80 L 504.30 95.80 L 504.30 159.80 L 497.30 159.80 Z" fill="#ffffff" fill-rule="evenodd" group-id="1,2" id="矩形" node-id="86" stroke="none" target-height="64" target-width="7" target-x="497.3" target-y="95.8"></path><path d="M 514.30 95.80 L 521.30 95.80 L 521.30 159.80 L 514.30 159.80 Z" fill="#ffffff" fill-rule="evenodd" group-id="1,2" id="矩形" node-id="87" stroke="none" target-height="64" target-width="7" target-x="514.3" target-y="95.8"></path><path d="M 530.30 95.80 L 537.30 95.80 L 537.30 159.80 L 530.30 159.80 Z" fill="#ffffff" fill-rule="evenodd" group-id="1,2" id="矩形" node-id="88" stroke="none" target-height="64" target-width="7" target-x="530.3" target-y="95.8"></path><path d="M 546.30 95.80 L 553.30 95.80 L 553.30 159.80 L 546.30 159.80 Z" fill="#ffffff" fill-rule="evenodd" group-id="1,2" id="矩形" node-id="89" stroke="none" target-height="64" target-width="7" target-x="546.3" target-y="95.8"></path><path d="M 467.20 86.80 L 467.20 159.00 L 567.20 159.00 L 567.20 160.00 L 466.20 160.00 L 466.20 86.80 Z" fill="#a4c3fc" fill-rule="nonzero" group-id="1,2" id="路径-302" node-id="90" stroke="none" target-height="73.2" target-width="101" target-x="466.2" target-y="86.8"></path><path d="M 559.50 153.20 L 560.10 152.50 L 567.90 159.50 L 560.20 167.70 L 559.40 167.00 L 566.50 159.60 Z" fill="#979797" fill-rule="nonzero" group-id="1,2" id="路径-304" node-id="91" stroke="none" target-height="15.199997" target-width="8.5" target-x="559.4" target-y="152.5"></path><g node-id="517"><path d="M 668.60 152.00 L 558.60 152.00 L 556.50 152.30 L 554.60 153.10 L 553.00 154.30 L 551.70 156.00 L 550.90 157.90 L 550.60 160.00 L 550.60 232.00 L 530.00 254.50 L 668.60 254.90 L 671.90 254.60 L 674.90 253.80 L 677.70 252.50 L 680.20 250.70 L 682.40 248.60 L 684.20 246.10 L 685.50 243.30 L 686.30 240.30 L 686.60 237.00 L 686.60 170.00 L 686.30 166.70 L 685.50 163.70 L 684.20 160.90 L 682.40 158.40 L 680.20 156.20 L 677.70 154.50 L 674.90 153.10 L 671.90 152.30 L 668.60 152.00 Z" fill="#a4c3fc" fill-rule="evenodd" group-id="1,2,8" id="矩形" node-id="92" stroke="none" target-height="102.899994" target-width="156.59998" target-x="530" target-y="152"></path></g><g node-id="518"><path d="M 663.60 151.00 L 553.60 151.00 L 551.50 151.30 L 549.60 152.10 L 548.00 153.30 L 546.70 155.00 L 545.90 156.90 L 545.60 159.00 L 545.60 231.00 L 525.00 253.50 L 663.60 253.90 L 666.90 253.60 L 669.90 252.80 L 672.70 251.50 L 675.20 249.70 L 677.40 247.60 L 679.20 245.10 L 680.50 242.30 L 681.30 239.30 L 681.60 236.00 L 681.60 169.00 L 681.30 165.70 L 680.50 162.70 L 679.20 159.90 L 677.40 157.40 L 675.20 155.20 L 672.70 153.50 L 669.90 152.10 L 666.90 151.30 L 663.60 151.00 Z" fill="#ffca67" fill-rule="evenodd" group-id="1,2,9" id="矩形" node-id="93" stroke="none" target-height="102.899994" target-width="156.59998" target-x="525" target-y="151"></path></g><path d="M 552.10 105.80 L 554.70 104.70 L 557.20 104.20 L 558.80 104.30 L 562.80 105.40 L 562.40 106.30 L 559.70 105.40 L 557.40 105.20 L 555.00 105.60 L 552.60 106.70 L 549.50 108.80 L 538.70 118.50 L 533.30 122.90 L 529.30 125.50 L 526.20 126.80 L 522.90 127.50 L 517.20 127.50 L 514.60 127.10 L 502.20 123.80 L 496.80 122.80 L 492.60 123.00 L 488.20 124.80 L 485.70 126.60 L 483.10 129.20 L 480.50 132.60 L 477.70 137.10 L 474.90 142.80 L 471.90 150.10 L 468.70 159.70 L 467.70 159.40 L 470.80 150.20 L 473.80 142.70 L 476.80 136.80 L 479.60 132.10 L 482.40 128.50 L 485.10 125.90 L 487.70 124.00 L 490.20 122.70 L 492.50 122.10 L 497.00 121.80 L 503.00 122.90 L 515.00 126.10 L 517.30 126.50 L 522.80 126.50 L 525.90 125.80 L 528.80 124.60 L 532.70 122.10 L 538.40 117.40 L 548.90 107.90 L 552.10 105.80 Z" fill="#ffbb3c" fill-rule="nonzero" group-id="1,2" id="路径-303" node-id="94" stroke="none" target-height="55.5" target-width="95.099976" target-x="467.7" target-y="104.2"></path><path d="M 459.00 93.20 L 466.70 86.20 L 474.50 93.20 L 473.80 94.00 L 466.70 87.50 L 459.60 94.00 Z" fill="#a4c3fc" fill-rule="nonzero" group-id="1,2" id="路径-305" node-id="95" stroke="none" target-height="7.800003" target-width="15.5" target-x="459" target-y="86.2"></path><g node-id="519"><g node-id="534"><g node-id="542"><path d="M 117.80 357.10 L 175.70 357.10 L 176.90 357.30 L 177.80 358.00 L 178.50 358.90 L 178.70 360.60 L 169.70 415.60 L 168.60 417.40 L 166.70 418.10 L 126.80 418.10 L 125.70 417.90 L 124.20 416.60 L 114.80 360.60 L 114.90 359.40 L 115.30 358.40 L 116.20 357.60 L 117.80 357.10 Z" fill="#dde9ff" fill-rule="evenodd" group-id="1,2,10,25,33" node-id="413" stroke="none" target-height="61" target-width="63.899994" target-x="114.8" target-y="357.1"></path></g><path d="M 115.50 357.10 L 177.70 357.10 L 179.40 357.70 L 180.10 358.40 L 182.30 362.10 L 182.00 363.90 L 180.60 365.00 L 116.30 365.10 L 115.40 365.00 L 114.00 364.00 L 112.70 361.10 L 112.50 359.90 L 112.80 358.90 L 113.40 357.90 L 114.40 357.30 L 115.50 357.10 Z" fill="#ffbb3c" fill-rule="evenodd" group-id="1,2,10,25,34" id="矩形" node-id="101" stroke="none" target-height="8" target-width="69.8" target-x="112.5" target-y="357.1"></path></g><g node-id="535"><g node-id="544"><path d="M 140.30 334.50 L 142.00 312.70 L 143.50 298.30 L 145.00 289.30 L 147.20 280.50 L 149.60 272.70 L 152.40 265.20 L 155.00 259.00 L 159.80 249.20 L 163.80 242.20 L 167.40 236.90 L 171.10 232.30 L 174.40 229.00 L 177.70 226.20 L 180.40 224.30 L 187.00 220.70 L 192.40 219.30 L 195.40 219.00 L 201.40 219.50 L 204.20 220.30 L 206.70 221.60 L 208.80 223.30 L 210.50 225.20 L 211.90 227.30 L 212.90 229.70 L 213.80 233.00 L 214.20 237.10 L 214.10 242.20 L 213.50 245.40 L 212.60 248.40 L 211.30 250.90 L 207.70 255.40 L 202.00 259.80 L 195.30 263.40 L 190.80 266.20 L 180.60 273.50 L 169.70 282.80 L 164.40 288.00 L 159.80 293.10 L 156.40 297.60 L 153.10 302.90 L 149.80 309.20 L 146.50 316.40 L 143.40 324.80 L 140.30 334.50 Z" fill="#eafff3" fill-rule="evenodd" group-id="1,2,10,26,35" node-id="423" stroke="none" target-height="115.5" target-width="73.899994" target-x="140.3" target-y="219"></path></g><g node-id="545"><path d="M 140.30 338.50 L 142.00 316.70 L 143.50 302.30 L 145.00 293.30 L 147.20 284.50 L 149.60 276.70 L 152.40 269.20 L 155.00 263.00 L 159.80 253.20 L 163.80 246.20 L 167.40 240.90 L 171.10 236.30 L 174.40 233.00 L 177.70 230.20 L 180.40 228.30 L 187.00 224.70 L 192.40 223.30 L 195.40 223.00 L 201.40 223.50 L 204.20 224.30 L 206.70 225.60 L 208.80 227.30 L 210.50 229.20 L 211.90 231.30 L 212.90 233.70 L 213.80 237.00 L 214.20 241.10 L 214.10 246.20 L 213.50 249.40 L 212.60 252.40 L 211.30 254.90 L 207.70 259.40 L 202.00 263.80 L 195.30 267.40 L 190.80 270.20 L 180.60 277.50 L 169.70 286.80 L 164.40 292.00 L 159.80 297.10 L 156.40 301.60 L 153.10 306.90 L 149.80 313.20 L 146.50 320.40 L 143.40 328.80 L 140.30 338.50 Z" fill="#d3f0e0" fill-rule="evenodd" group-id="1,2,10,26,36" id="路径-246" node-id="106" stroke="none" target-height="115.5" target-width="73.899994" target-x="140.3" target-y="223"></path></g><g node-id="546"><path d="M 201.40 241.10 L 202.00 241.40 L 201.70 242.00 L 196.20 243.80 L 191.00 246.00 L 186.00 248.80 L 181.20 252.00 L 176.60 255.80 L 172.20 260.20 L 167.90 265.20 L 163.80 270.90 L 159.90 277.30 L 156.20 284.40 L 152.70 292.50 L 149.40 301.40 L 146.30 311.40 L 143.50 322.40 L 140.80 334.90 L 140.40 335.00 L 140.00 334.40 L 142.50 322.20 L 145.40 311.10 L 148.40 301.00 L 151.80 292.00 L 155.30 284.00 L 159.10 276.70 L 163.00 270.30 L 167.20 264.60 L 171.50 259.50 L 176.00 255.10 L 180.60 251.20 L 185.50 247.90 L 190.60 245.10 L 195.80 242.80 L 201.40 241.10 Z" fill="#9fc8b1" fill-rule="nonzero" group-id="1,2,10,26,37" id="路径-251" node-id="107" stroke="none" target-height="93.899994" target-width="62" target-x="140" target-y="241.1"></path></g><path d="M 193.60 264.30 L 185.90 269.00 L 178.80 273.90 L 172.50 279.00 L 166.90 284.10 L 161.80 289.40 L 157.40 294.90 L 153.50 300.60 L 150.10 306.40 L 147.20 312.40 L 144.80 318.60 L 143.00 325.10 L 141.60 331.80 L 160.50 306.60 L 174.00 289.50 L 183.30 278.60 L 189.40 272.10 L 193.20 268.80 L 199.40 265.20 L 199.50 264.80 L 199.10 264.50 L 197.50 264.30 L 193.60 264.30 Z" fill="#c4e0d1" fill-rule="evenodd" group-id="1,2,10,26,38" id="路径-358" node-id="108" stroke="none" target-height="67.5" target-width="57.899994" target-x="141.6" target-y="264.3"></path></g><g node-id="536"><g node-id="548"><path d="M 163.00 242.90 L 170.40 228.40 L 176.70 216.90 L 182.10 208.10 L 186.70 201.40 L 190.50 196.60 L 193.80 193.30 L 198.00 189.90 L 202.20 187.20 L 206.40 185.10 L 210.90 183.50 L 215.10 182.40 L 219.00 181.70 L 223.10 181.50 L 226.50 181.80 L 229.40 182.40 L 231.40 183.10 L 233.20 184.20 L 236.20 187.20 L 237.40 189.00 L 238.90 193.10 L 239.30 197.20 L 239.00 199.20 L 237.40 202.90 L 235.60 205.20 L 233.80 206.80 L 231.80 208.10 L 229.40 209.10 L 223.10 210.60 L 206.90 213.70 L 201.70 215.10 L 193.20 218.20 L 183.50 222.60 L 178.50 225.70 L 173.20 230.00 L 167.60 236.60 L 163.00 242.90 Z" fill="#eafff3" fill-rule="evenodd" group-id="1,2,10,27,39" node-id="441" stroke="none" target-height="61.399994" target-width="76.3" target-x="163" target-y="181.5"></path></g><g node-id="549"><path d="M 160.90 247.20 L 169.50 231.70 L 176.70 219.60 L 182.60 210.30 L 187.50 203.50 L 191.60 198.60 L 194.80 195.30 L 199.00 191.90 L 203.20 189.20 L 207.40 187.10 L 211.90 185.50 L 216.10 184.40 L 220.00 183.70 L 224.10 183.50 L 227.50 183.80 L 230.40 184.40 L 232.40 185.10 L 234.20 186.20 L 237.20 189.20 L 238.40 191.00 L 239.90 195.10 L 240.30 199.20 L 240.00 201.20 L 238.40 204.90 L 236.60 207.20 L 234.80 208.80 L 232.80 210.10 L 230.40 211.10 L 224.10 212.60 L 207.90 215.70 L 202.70 217.10 L 194.20 220.20 L 185.00 224.40 L 175.60 230.50 L 171.10 234.20 L 165.50 240.80 L 160.90 247.20 Z" fill="#d3f0e0" fill-rule="evenodd" group-id="1,2,10,27,40" node-id="445" stroke="none" target-height="63.699997" target-width="79.40001" target-x="160.9" target-y="183.5"></path></g><g node-id="550"><path d="M 223.60 192.90 L 224.10 193.30 L 223.70 193.80 L 218.60 194.70 L 213.60 196.10 L 208.40 198.20 L 203.10 200.90 L 197.70 204.30 L 192.10 208.60 L 186.40 213.70 L 180.40 219.80 L 174.30 227.00 L 167.90 235.40 L 161.00 245.20 L 160.70 245.10 L 160.50 244.50 L 167.10 234.80 L 173.50 226.40 L 179.70 219.10 L 185.70 213.00 L 191.50 207.80 L 197.20 203.50 L 202.70 200.00 L 208.00 197.20 L 213.30 195.20 L 218.40 193.70 L 223.60 192.90 Z" fill="#9fc8b1" fill-rule="nonzero" group-id="1,2,10,27,41" id="路径-253" node-id="116" stroke="none" target-height="52.300003" target-width="63.600006" target-x="160.5" target-y="192.9"></path></g><path d="M 240.00 195.50 L 239.10 199.30 L 238.00 202.30 L 236.50 204.70 L 234.80 206.40 L 232.70 207.90 L 227.60 210.20 L 206.60 215.30 L 197.40 218.30 L 188.10 222.30 L 183.80 224.70 L 180.30 227.30 L 202.10 219.90 L 233.20 212.20 L 243.00 202.00 L 240.00 195.50 Z" fill="#c4e0d1" fill-rule="evenodd" group-id="1,2,10,27,42" id="路径-357" node-id="117" stroke="none" target-height="31.800003" target-width="62.699997" target-x="180.3" target-y="195.5"></path></g><g node-id="537"><g node-id="552"><path d="M 137.70 283.20 L 134.70 270.10 L 131.70 259.30 L 128.80 250.40 L 126.10 243.20 L 123.50 237.40 L 121.00 233.00 L 117.40 227.60 L 113.70 222.80 L 109.90 218.60 L 106.00 215.00 L 101.80 211.60 L 97.60 208.80 L 93.40 206.40 L 83.80 202.20 L 78.90 199.60 L 73.30 195.50 L 71.20 193.30 L 69.50 190.90 L 68.20 188.30 L 67.50 185.50 L 67.40 182.60 L 67.70 179.70 L 68.50 177.00 L 69.80 174.40 L 71.50 172.10 L 73.80 170.00 L 76.40 168.30 L 79.60 167.10 L 83.40 166.20 L 87.30 165.90 L 91.20 166.00 L 95.10 166.50 L 98.90 167.40 L 102.80 169.00 L 106.70 171.10 L 110.30 173.70 L 113.90 177.20 L 117.70 181.50 L 120.30 185.30 L 123.00 190.50 L 128.00 202.60 L 132.40 216.50 L 134.30 223.60 L 137.30 237.30 L 139.00 249.00 L 139.20 253.40 L 139.00 264.40 L 137.70 283.20 Z" fill="#eafff3" fill-rule="evenodd" group-id="1,2,10,28,43" node-id="459" stroke="none" target-height="117.30002" target-width="71.799995" target-x="67.4" target-y="165.9"></path></g><g node-id="553"><path d="M 136.70 285.20 L 133.70 272.10 L 130.70 261.30 L 127.80 252.40 L 125.10 245.20 L 122.50 239.40 L 120.00 235.00 L 116.40 229.60 L 112.70 224.80 L 108.90 220.60 L 105.00 217.00 L 100.80 213.60 L 96.60 210.80 L 92.40 208.40 L 82.80 204.20 L 77.90 201.60 L 72.30 197.50 L 70.20 195.30 L 68.50 192.90 L 67.20 190.30 L 66.50 187.50 L 66.40 184.60 L 66.70 181.70 L 67.50 179.00 L 68.80 176.40 L 70.50 174.10 L 72.80 172.00 L 75.40 170.30 L 78.60 169.10 L 82.40 168.20 L 86.30 167.90 L 90.20 168.00 L 94.10 168.50 L 97.90 169.40 L 101.80 171.00 L 105.70 173.10 L 109.30 175.70 L 112.90 179.20 L 116.70 183.50 L 119.30 187.30 L 122.00 192.50 L 127.00 204.60 L 131.40 218.50 L 133.30 225.60 L 136.30 239.30 L 138.00 251.00 L 138.20 255.40 L 138.00 266.40 L 136.70 285.20 Z" fill="#d3f0e0" fill-rule="evenodd" group-id="1,2,10,28,44" id="路径-248" node-id="122" stroke="none" target-height="117.30002" target-width="71.799995" target-x="66.4" target-y="167.9"></path></g><g node-id="554"><path d="M 91.20 179.50 L 91.90 179.40 L 97.50 183.30 L 102.70 187.60 L 107.60 192.40 L 112.20 197.70 L 116.40 203.50 L 120.40 209.90 L 124.00 216.90 L 127.30 224.50 L 130.20 232.80 L 132.80 241.90 L 134.90 251.70 L 136.70 262.50 L 137.90 274.10 L 138.70 286.80 L 138.20 287.30 L 137.70 286.80 L 136.90 274.20 L 135.70 262.60 L 133.90 252.00 L 131.80 242.20 L 129.20 233.20 L 126.30 224.90 L 123.10 217.30 L 119.50 210.40 L 115.60 204.10 L 111.40 198.30 L 106.90 193.10 L 102.00 188.30 L 96.90 184.10 L 91.30 180.20 L 91.20 179.50 Z" fill="#9fc8b1" fill-rule="nonzero" group-id="1,2,10,28,45" id="路径-254" node-id="123" stroke="none" target-height="107.899994" target-width="47.5" target-x="91.2" target-y="179.4"></path></g><path d="M 69.50 175.30 L 68.90 179.20 L 68.90 182.70 L 69.50 185.90 L 70.60 188.90 L 72.20 191.60 L 74.40 194.20 L 77.30 196.60 L 80.90 198.90 L 92.50 204.10 L 98.10 207.00 L 103.20 210.30 L 107.60 213.70 L 111.50 217.40 L 115.10 221.70 L 122.30 231.80 L 124.60 235.80 L 126.90 240.70 L 129.20 246.70 L 131.40 253.80 L 133.50 262.30 L 135.60 272.20 L 137.50 283.90 L 61.00 195.40 L 69.50 175.30 Z" fill="#c4e0d1" fill-rule="evenodd" group-id="1,2,10,28,46" id="路径-354" node-id="124" stroke="none" target-height="108.59999" target-width="76.5" target-x="61" target-y="175.3"></path></g><g node-id="538"><g node-id="556"><path d="M 139.20 244.70 L 139.90 222.90 L 140.00 205.30 L 139.50 191.30 L 138.70 180.40 L 137.50 172.10 L 136.20 165.90 L 134.00 159.00 L 131.80 153.20 L 129.40 148.40 L 127.30 144.80 L 122.90 139.70 L 120.70 137.90 L 118.20 136.40 L 115.60 135.50 L 112.90 135.00 L 110.10 135.10 L 107.20 135.70 L 104.90 136.60 L 103.10 137.70 L 101.60 139.00 L 100.30 140.60 L 98.90 144.20 L 98.70 146.20 L 99.00 148.80 L 99.80 151.50 L 101.30 154.20 L 116.60 178.20 L 122.00 187.80 L 126.10 196.50 L 128.30 202.80 L 131.20 212.30 L 134.80 225.90 L 139.20 244.70 Z" fill="#eafff3" fill-rule="evenodd" group-id="1,2,10,29,47" node-id="477" stroke="none" target-height="109.7" target-width="41.300003" target-x="98.7" target-y="135"></path></g><g node-id="557"><path d="M 139.10 244.00 L 139.00 222.10 L 138.50 204.50 L 137.60 190.60 L 136.30 179.70 L 134.90 171.40 L 133.30 165.30 L 131.00 158.50 L 128.50 152.80 L 126.00 148.00 L 123.70 144.60 L 119.20 139.60 L 116.90 137.80 L 114.30 136.50 L 111.70 135.60 L 109.00 135.30 L 106.20 135.50 L 103.40 136.20 L 101.10 137.10 L 99.20 138.30 L 97.80 139.60 L 96.60 141.30 L 95.30 144.90 L 95.20 146.90 L 95.60 149.60 L 96.50 152.20 L 98.00 154.90 L 114.20 178.30 L 119.90 187.80 L 124.30 196.20 L 126.80 202.40 L 130.00 211.90 L 134.00 225.40 L 139.10 244.00 Z" fill="#d3f0e0" fill-rule="evenodd" group-id="1,2,10,29,48" id="路径-249" node-id="129" stroke="none" target-height="108.7" target-width="43.90001" target-x="95.2" target-y="135.3"></path></g><path d="M 100.70 139.90 L 100.10 143.40 L 100.10 146.60 L 100.70 149.60 L 101.70 152.30 L 114.10 171.40 L 121.30 184.20 L 124.70 191.20 L 127.60 198.40 L 129.30 203.20 L 131.60 212.50 L 102.40 160.60 L 96.20 147.80 L 100.70 139.90 Z" fill="#c4e0d1" fill-rule="evenodd" group-id="1,2,10,29,49" id="路径-356" node-id="130" stroke="none" target-height="72.600006" target-width="35.40001" target-x="96.2" target-y="139.9"></path></g><g node-id="539"><g node-id="559"><path d="M 137.20 319.30 L 131.30 311.50 L 125.50 304.50 L 119.60 298.50 L 113.80 293.20 L 107.90 288.70 L 102.00 284.90 L 96.00 281.70 L 90.10 279.10 L 85.10 277.50 L 80.60 276.40 L 73.00 275.50 L 68.10 275.70 L 64.00 276.50 L 60.50 277.70 L 57.30 279.40 L 54.80 281.30 L 52.90 283.30 L 51.40 285.60 L 50.60 287.90 L 50.30 290.00 L 50.60 292.80 L 51.30 295.20 L 52.50 297.30 L 54.00 299.20 L 56.00 300.70 L 58.40 301.90 L 61.00 302.80 L 67.40 303.50 L 81.00 303.30 L 91.90 304.20 L 97.70 305.40 L 101.50 306.60 L 109.20 310.10 L 113.80 313.00 L 118.60 316.50 L 123.60 320.80 L 128.90 326.00 L 134.30 332.00 L 140.00 339.00 L 137.20 319.30 Z" fill="#eafff3" fill-rule="evenodd" group-id="1,2,10,30,50" node-id="491" stroke="none" target-height="63.5" target-width="89.7" target-x="50.3" target-y="275.5"></path></g><g node-id="560"><path d="M 137.20 321.30 L 131.30 313.50 L 125.50 306.50 L 119.60 300.50 L 113.80 295.20 L 107.90 290.70 L 102.00 286.90 L 96.00 283.70 L 90.10 281.10 L 85.10 279.50 L 80.60 278.40 L 73.00 277.50 L 68.10 277.70 L 64.00 278.50 L 60.50 279.70 L 57.30 281.40 L 54.80 283.30 L 52.90 285.30 L 51.40 287.60 L 50.60 289.90 L 50.30 292.00 L 50.60 294.80 L 51.30 297.20 L 52.50 299.30 L 54.00 301.20 L 56.00 302.70 L 58.40 303.90 L 61.00 304.80 L 67.40 305.50 L 81.00 305.30 L 91.90 306.20 L 97.70 307.40 L 101.50 308.60 L 109.20 312.10 L 113.80 315.00 L 118.60 318.50 L 123.60 322.80 L 128.90 328.00 L 134.30 334.00 L 140.00 341.00 L 137.20 321.30 Z" fill="#d3f0e0" fill-rule="evenodd" group-id="1,2,10,30,51" id="路径-250" node-id="135" stroke="none" target-height="63.5" target-width="89.7" target-x="50.3" target-y="277.5"></path></g><path d="M 51.50 295.60 L 53.40 297.50 L 55.70 298.90 L 58.20 300.10 L 61.00 300.80 L 70.20 301.60 L 84.30 301.60 L 88.80 302.00 L 93.50 302.80 L 98.10 303.90 L 102.80 305.50 L 107.80 307.90 L 112.60 310.70 L 117.70 314.40 L 123.20 319.20 L 128.30 324.40 L 133.90 330.90 L 140.00 339.00 L 123.80 332.00 L 52.70 303.10 L 51.50 295.60 Z" fill="#c4e0d1" fill-rule="evenodd" group-id="1,2,10,30,52" id="路径-355" node-id="136" stroke="none" target-height="43.399994" target-width="88.5" target-x="51.5" target-y="295.6"></path></g><path d="M 113.90 146.60 L 114.60 146.70 L 119.50 153.80 L 124.10 163.20 L 126.70 170.00 L 129.20 177.60 L 131.50 186.30 L 135.20 204.50 L 137.90 225.60 L 138.70 235.50 L 139.60 255.10 L 139.40 273.10 L 139.00 281.50 L 137.30 297.80 L 137.00 306.20 L 137.30 314.60 L 138.10 323.00 L 139.50 331.50 L 141.50 339.90 L 144.00 348.40 L 147.20 357.30 L 146.90 357.60 L 146.30 357.30 L 143.10 348.80 L 140.60 340.40 L 138.60 332.00 L 137.20 323.70 L 136.30 315.30 L 136.00 307.00 L 136.20 298.60 L 137.90 282.10 L 138.40 273.70 L 138.60 255.60 L 137.80 235.80 L 136.90 225.80 L 134.00 203.90 L 130.40 186.10 L 128.20 177.60 L 125.70 170.10 L 123.20 163.50 L 120.10 157.00 L 117.00 151.70 L 113.90 147.30 L 113.90 146.60 Z" fill="#9fc8b1" fill-rule="nonzero" group-id="1,2,10" id="路径-245" node-id="137" stroke="none" target-height="211" target-width="33.299995" target-x="113.9" target-y="146.6"></path><path d="M 69.50 287.50 L 78.20 288.70 L 86.20 290.50 L 93.80 292.70 L 100.80 295.50 L 107.40 298.70 L 113.50 302.40 L 119.30 306.60 L 124.60 311.30 L 129.60 316.60 L 134.30 322.30 L 138.70 328.70 L 138.50 329.40 L 138.10 329.50 L 133.50 322.90 L 128.90 317.20 L 123.90 312.00 L 118.60 307.40 L 112.90 303.20 L 106.90 299.60 L 100.40 296.40 L 93.40 293.70 L 86.00 291.40 L 78.00 289.70 L 69.40 288.50 L 69.00 288.00 L 69.50 287.50 Z" fill="#9fc8b1" fill-rule="nonzero" group-id="1,2,10" id="路径-252" node-id="138" stroke="none" target-height="42" target-width="69.7" target-x="69" target-y="287.5"></path></g><g node-id="520"><g node-id="540"><path d="M 654.30 203.00 L 654.10 207.40 L 653.50 211.50 L 652.40 215.50 L 651.00 219.30 L 647.20 226.50 L 642.00 232.70 L 635.80 237.80 L 628.70 241.70 L 624.80 243.10 L 620.90 244.10 L 616.70 244.80 L 612.30 245.00 L 608.00 244.80 L 603.80 244.10 L 599.80 243.10 L 592.30 239.90 L 585.60 235.40 L 579.90 229.70 L 575.40 223.00 L 573.60 219.30 L 572.20 215.50 L 571.20 211.50 L 570.60 207.40 L 570.30 203.00 L 570.60 198.60 L 571.20 194.50 L 572.20 190.50 L 575.40 183.00 L 579.90 176.30 L 585.60 170.60 L 588.80 168.20 L 596.00 164.30 L 599.80 162.90 L 603.80 161.90 L 608.00 161.20 L 612.30 161.00 L 616.70 161.20 L 620.90 161.90 L 624.80 162.90 L 628.70 164.30 L 635.80 168.20 L 642.00 173.30 L 647.20 179.50 L 651.00 186.70 L 652.40 190.50 L 653.50 194.50 L 654.10 198.60 L 654.30 203.00 Z" fill="#ffffff" fill-rule="evenodd" group-id="1,2,11,31" node-id="508" stroke="none" target-height="84" target-width="84" target-x="570.3" target-y="161"></path></g><path d="M 612.30 205.00 L 648.30 179.20 L 661.10 201.50 L 654.30 220.90 Z" fill="#ccdeff" fill-rule="evenodd" group-id="1,2,11,32" id="路径-306" node-id="143" stroke="none" target-height="41.699997" target-width="48.799988" target-x="612.3" target-y="179.2"></path></g></g></g></svg>