<?xml version="1.0" standalone="no"?><!DOCTYPE svg PUBLIC "-//W3C//DTD SVG 1.1//EN" "http://www.w3.org/Graphics/SVG/1.1/DTD/svg11.dtd"><svg height="1024" node-id="1" sillyvg="true" template-height="1024" template-width="1024" version="1.1" viewBox="0 0 1024 1024" width="1024" xmlns="http://www.w3.org/2000/svg" xmlns:xlink="http://www.w3.org/1999/xlink"><defs node-id="33"></defs><g node-id="86"><g node-id="87"><path d="M 0.00 0.00 L 1024.00 0.00 L 1024.00 1024.00 L 0.00 1024.00 Z" fill="none" group-id="1,2" node-id="38" stroke="none" target-height="1024" target-width="1024" target-x="0" target-y="0"></path><path d="M 751.20 703.20 L 750.90 707.60 L 750.00 711.70 L 748.70 715.60 L 746.80 719.30 L 744.50 722.70 L 741.80 725.80 L 738.70 728.50 L 735.30 730.80 L 731.60 732.70 L 727.70 734.00 L 723.60 734.90 L 719.20 735.20 L 714.80 734.90 L 710.60 734.00 L 706.70 732.70 L 703.00 730.80 L 699.60 728.50 L 696.50 725.80 L 693.80 722.70 L 691.60 719.30 L 689.70 715.60 L 688.30 711.70 L 687.50 707.60 L 687.20 703.20 L 687.50 698.80 L 688.30 694.60 L 689.70 690.70 L 691.60 687.00 L 693.80 683.60 L 696.50 680.50 L 699.60 677.80 L 703.00 675.60 L 706.70 673.70 L 710.60 672.30 L 714.80 671.50 L 719.20 671.20 L 723.60 671.50 L 727.70 672.30 L 731.60 673.70 L 735.30 675.60 L 738.70 677.80 L 741.80 680.50 L 744.50 683.60 L 746.80 687.00 L 748.70 690.70 L 750.00 694.60 L 750.90 698.80 L 751.20 703.20 Z" fill="#ccdeff" fill-rule="nonzero" group-id="1,2" node-id="40" stroke="none" target-height="64" target-width="64" target-x="687.2" target-y="671.2"></path><path d="M 654.50 716.00 L 659.60 705.80 L 659.90 704.80 L 659.80 702.70 L 629.20 656.50 L 657.20 628.50 L 658.00 627.50 L 658.90 625.20 L 658.90 623.90 L 658.20 621.40 L 656.60 619.50 L 594.40 572.80 L 593.30 572.20 L 592.00 572.00 L 589.90 572.60 L 588.50 574.10 L 588.00 576.20 L 588.70 578.20 L 617.80 621.90 L 574.80 636.20 L 573.40 637.00 L 572.50 638.20 L 572.10 639.60 L 572.20 641.20 L 587.50 686.90 L 558.30 716.00 L 366.00 716.00 L 361.00 715.80 L 351.60 714.20 L 347.00 712.90 L 338.40 709.30 L 330.60 704.40 L 325.80 700.50 L 321.50 696.20 L 317.60 691.40 L 315.00 687.60 L 310.80 679.40 L 307.80 670.40 L 306.20 661.00 L 306.00 656.00 L 306.00 432.00 L 306.80 422.20 L 309.10 413.00 L 312.70 404.40 L 317.60 396.60 L 321.50 391.80 L 325.80 387.50 L 330.60 383.60 L 334.40 381.00 L 342.60 376.80 L 351.60 373.80 L 356.20 372.80 L 366.00 372.00 L 659.00 372.00 L 664.00 372.20 L 673.40 373.80 L 678.00 375.10 L 686.60 378.70 L 694.40 383.60 L 699.20 387.50 L 703.50 391.80 L 707.40 396.60 L 710.00 400.40 L 714.20 408.60 L 717.20 417.60 L 718.80 427.00 L 719.00 432.00 L 719.00 656.00 L 718.20 665.80 L 715.90 675.00 L 712.30 683.60 L 707.40 691.40 L 703.50 696.20 L 699.20 700.50 L 694.40 704.40 L 690.60 707.00 L 682.40 711.20 L 673.40 714.20 L 668.80 715.20 L 659.00 716.00 Z" fill="#ffffff" fill-rule="nonzero" group-id="1,2" node-id="42" stroke="none" target-height="344" target-width="413" target-x="306" target-y="372"></path><path d="M 659.00 376.00 L 663.60 376.20 L 672.50 377.60 L 676.70 378.90 L 682.10 381.00 L 687.30 383.70 L 692.10 386.80 L 696.50 390.50 L 700.50 394.50 L 704.20 398.90 L 707.30 403.70 L 710.00 408.90 L 712.10 414.30 L 714.20 422.90 L 715.00 432.00 L 715.00 656.00 L 714.70 661.70 L 713.90 667.10 L 712.60 672.30 L 710.80 677.30 L 708.50 682.20 L 705.80 686.70 L 702.80 690.90 L 699.30 694.90 L 695.50 698.50 L 691.30 701.70 L 686.90 704.60 L 682.10 707.00 L 677.20 709.00 L 672.00 710.50 L 666.70 711.50 L 661.00 712.00 L 663.90 705.60 L 664.00 703.50 L 663.60 701.50 L 662.70 699.60 L 634.30 657.00 L 660.00 631.30 L 661.40 629.60 L 662.30 627.70 L 662.80 625.70 L 662.90 623.50 L 662.60 621.40 L 661.80 619.40 L 660.60 617.70 L 659.00 616.20 L 596.80 569.60 L 595.10 568.60 L 593.40 568.10 L 591.50 568.00 L 589.70 568.30 L 588.10 569.00 L 586.50 570.20 L 585.30 571.70 L 584.50 573.30 L 584.00 575.10 L 584.00 576.90 L 584.50 578.70 L 585.30 580.40 L 611.50 619.70 L 573.50 632.40 L 570.80 634.00 L 568.80 636.40 L 568.00 639.40 L 568.40 642.50 L 582.90 685.80 L 556.70 712.00 L 366.00 712.00 L 361.40 711.80 L 352.50 710.40 L 348.30 709.10 L 342.90 707.00 L 337.70 704.30 L 332.90 701.20 L 328.50 697.50 L 324.50 693.50 L 320.80 689.10 L 317.70 684.30 L 315.00 679.10 L 312.90 673.70 L 310.80 665.10 L 310.00 656.00 L 310.20 427.40 L 310.80 422.90 L 312.90 414.30 L 315.00 408.90 L 317.70 403.70 L 320.80 398.90 L 324.50 394.50 L 328.50 390.50 L 332.90 386.80 L 337.70 383.70 L 342.90 381.00 L 348.30 378.90 L 356.90 376.80 L 366.00 376.00 L 659.00 376.00 M 659.00 368.00 L 366.00 368.00 L 360.70 368.20 L 355.60 368.80 L 350.60 369.90 L 345.80 371.30 L 336.60 375.20 L 328.20 380.30 L 324.30 383.40 L 317.40 390.30 L 311.60 398.30 L 307.00 407.10 L 303.90 416.60 L 302.80 421.60 L 302.20 426.70 L 302.00 432.00 L 302.00 656.00 L 302.20 661.30 L 302.80 666.40 L 303.90 671.40 L 305.30 676.20 L 309.20 685.40 L 314.30 693.80 L 317.40 697.70 L 324.30 704.60 L 332.30 710.40 L 341.10 715.00 L 350.60 718.10 L 355.60 719.20 L 360.70 719.80 L 366.00 720.00 L 559.90 719.80 L 591.10 688.90 L 591.60 687.90 L 591.60 686.90 L 576.00 640.00 L 621.50 624.80 L 622.30 624.30 L 622.80 623.60 L 622.80 622.70 L 622.50 621.80 L 592.00 576.00 L 654.70 623.30 L 654.80 624.90 L 654.40 625.60 L 625.20 654.80 L 624.60 656.00 L 624.90 657.40 L 656.00 704.00 L 649.50 717.10 L 649.20 718.10 L 649.50 719.10 L 650.30 719.70 L 651.20 720.00 L 664.30 719.80 L 669.40 719.20 L 674.40 718.10 L 679.20 716.70 L 683.90 715.00 L 692.70 710.40 L 700.70 704.60 L 707.60 697.70 L 713.40 689.70 L 718.00 680.90 L 721.10 671.40 L 722.20 666.40 L 722.80 661.30 L 723.00 656.00 L 723.00 432.00 L 722.80 426.70 L 722.20 421.60 L 721.10 416.60 L 719.70 411.80 L 715.80 402.60 L 710.70 394.20 L 707.60 390.30 L 700.70 383.40 L 692.70 377.60 L 688.40 375.20 L 679.20 371.30 L 674.40 369.90 L 669.40 368.80 L 664.30 368.20 L 659.00 368.00 Z" fill="#101129" fill-rule="nonzero" group-id="1,2" node-id="44" stroke="none" target-height="352" target-width="421" target-x="302" target-y="368"></path><path d="M 384.00 512.00 L 374.40 512.30 L 364.90 513.00 L 355.50 514.30 L 346.10 516.10 L 336.90 518.40 L 327.80 521.20 L 318.80 524.50 L 310.00 528.30 L 310.00 654.00 L 310.80 663.50 L 313.00 672.30 L 315.20 678.00 L 317.90 683.30 L 321.20 688.30 L 325.00 692.90 L 329.10 697.00 L 333.70 700.80 L 338.70 704.10 L 344.00 706.80 L 349.70 709.00 L 358.50 711.20 L 368.00 712.00 L 558.40 712.00 L 559.40 702.50 L 559.90 693.10 L 560.00 683.70 L 559.50 674.30 L 558.50 665.00 L 557.00 655.80 L 555.10 646.70 L 552.60 637.70 L 549.70 628.80 L 546.40 620.10 L 542.60 611.60 L 538.30 603.30 L 533.50 595.20 L 528.40 587.30 L 522.70 579.70 L 516.70 572.30 L 510.20 565.30 L 503.40 558.70 L 496.40 552.50 L 489.00 546.70 L 481.30 541.30 L 473.40 536.40 L 465.30 531.90 L 456.90 527.80 L 448.30 524.20 L 439.50 521.00 L 430.60 518.30 L 421.50 516.00 L 412.30 514.30 L 403.00 513.00 L 393.60 512.30 L 384.00 512.00 Z" fill="#ffdc8a" fill-rule="nonzero" group-id="1,2" node-id="46" stroke="none" target-height="200" target-width="250" target-x="310" target-y="512"></path><path d="M 932.00 896.10 L 935.10 897.00 L 938.30 897.50 L 941.40 897.60 L 944.60 897.20 L 947.60 896.50 L 953.30 893.80 L 955.90 892.00 L 958.30 889.70 L 960.30 887.20 L 962.00 884.50 L 964.10 878.50 L 964.70 872.30 L 964.40 869.20 L 963.60 866.10 L 962.50 863.00 L 960.90 860.10 L 959.00 857.60 L 956.90 855.30 L 954.40 853.30 L 951.80 851.70 L 948.90 850.40 L 945.90 849.50 L 942.70 849.00 L 937.50 848.90 L 936.00 848.60 L 935.40 848.10 L 933.20 844.30 L 931.00 841.40 L 928.60 841.10 L 927.60 840.00 L 925.60 836.60 L 922.00 834.40 L 918.10 832.50 L 913.80 831.00 L 909.30 829.90 L 904.60 829.20 L 899.70 829.00 L 894.50 829.20 L 889.70 829.90 L 885.20 831.10 L 880.80 832.70 L 876.90 834.70 L 873.30 837.00 L 870.10 839.70 L 867.50 842.60 L 865.30 845.70 L 863.10 850.80 L 862.20 857.30 L 861.70 858.10 L 860.80 858.60 L 859.90 858.80 L 852.60 859.60 L 846.00 861.90 L 840.60 865.40 L 838.20 867.50 L 836.30 869.90 L 834.70 872.50 L 833.50 875.20 L 832.80 878.10 L 832.50 881.20 L 833.30 886.40 L 835.50 891.30 L 838.10 892.80 L 843.60 894.90 L 848.00 895.80 L 852.50 896.10 Z" fill="#80adff" fill-rule="nonzero" group-id="1,2" node-id="48" stroke="none" target-height="68.599976" target-width="132.20001" target-x="832.5" target-y="829"></path><path d="M 922.00 898.60 L 932.00 898.60 L 936.00 898.20 L 939.80 897.40 L 943.40 896.10 L 946.80 894.30 L 949.90 892.20 L 952.80 889.70 L 955.20 886.80 L 957.30 883.70 L 959.00 880.20 L 960.30 876.60 L 961.00 872.80 L 961.30 868.70 L 961.00 864.70 L 960.30 860.90 L 959.00 857.30 L 957.30 853.80 L 955.20 850.70 L 952.80 847.80 L 949.90 845.30 L 946.80 843.20 L 943.40 841.40 L 939.80 840.10 L 936.00 839.30 L 929.80 839.00 L 926.40 833.50 L 924.10 831.00 L 921.50 828.60 L 917.70 825.90 L 913.30 823.50 L 908.50 821.60 L 903.40 820.20 L 898.00 819.30 L 892.20 819.00 L 886.70 819.30 L 881.50 820.10 L 876.70 821.30 L 872.00 823.10 L 867.80 825.20 L 864.10 827.70 L 860.60 830.70 L 857.80 833.80 L 855.50 837.20 L 853.20 842.80 L 852.40 848.80 L 848.30 849.10 L 844.40 849.70 L 840.80 850.80 L 837.30 852.30 L 834.10 854.00 L 831.30 856.10 L 828.80 858.50 L 826.60 861.20 L 824.90 864.00 L 823.60 867.10 L 822.90 870.30 L 822.60 873.70 L 822.90 877.10 L 823.60 880.30 L 824.90 883.40 L 826.60 886.20 L 828.80 888.90 L 831.30 891.30 L 834.10 893.40 L 837.30 895.20 L 840.80 896.60 L 844.40 897.70 L 848.30 898.30 L 852.40 898.60 L 902.20 898.60" fill="none" group-id="1,2" node-id="50" stroke="#101129" stroke-linecap="round" stroke-width="8" target-height="79.599976" target-width="138.70001" target-x="822.6" target-y="819"></path><path d="M 294.90 234.60 L 299.50 234.30 L 303.90 233.50 L 308.20 232.10 L 312.30 230.30 L 316.10 228.00 L 319.70 225.20 L 322.90 222.10 L 325.70 218.60 L 328.10 214.60 L 330.10 210.40 L 331.40 206.10 L 332.30 201.70 L 332.60 197.20 L 332.30 192.70 L 331.60 188.30 L 330.30 184.00 L 328.50 179.80 L 326.20 175.80 L 319.60 172.30 L 312.60 170.20 L 308.90 169.60 L 301.30 169.50 L 300.30 169.10 L 299.60 168.40 L 297.40 164.60 L 293.40 159.20 L 291.00 159.10 L 290.10 158.80 L 289.30 158.10 L 286.00 152.60 L 278.50 148.20 L 269.70 144.80 L 265.10 143.60 L 255.40 142.20 L 250.30 142.00 L 244.90 142.20 L 234.90 143.70 L 225.70 146.60 L 217.50 150.70 L 210.50 155.80 L 207.60 158.70 L 205.10 161.80 L 202.90 165.00 L 201.20 168.50 L 199.90 172.10 L 199.10 175.80 L 198.60 181.10 L 197.90 182.10 L 196.80 182.90 L 195.40 183.10 L 190.20 183.40 L 185.40 184.30 L 180.80 185.60 L 176.30 187.40 L 172.40 189.60 L 168.80 192.20 L 165.50 195.20 L 162.90 198.50 L 160.70 202.00 L 159.40 204.80 L 157.90 210.80 L 157.70 214.00 L 158.00 217.70 L 158.80 221.20 L 160.00 224.70 L 161.80 227.90 L 165.40 229.90 L 173.00 232.90 L 181.00 234.40 L 185.10 234.60 Z" fill="#80adff" fill-rule="nonzero" group-id="1,2" node-id="52" stroke="none" target-height="92.600006" target-width="174.90001" target-x="157.7" target-y="142"></path><path d="M 281.10 238.00 L 294.90 238.00 L 299.10 237.70 L 303.10 237.00 L 307.00 236.00 L 310.70 234.60 L 317.60 230.70 L 320.70 228.40 L 326.20 222.80 L 330.50 216.30 L 332.20 212.70 L 333.60 209.00 L 334.50 205.10 L 335.10 201.10 L 335.40 196.90 L 335.10 192.60 L 334.50 188.60 L 333.60 184.70 L 332.20 181.00 L 330.50 177.40 L 326.20 170.90 L 320.70 165.30 L 317.60 163.00 L 310.70 159.10 L 307.00 157.70 L 303.10 156.70 L 299.10 156.00 L 291.80 155.80 L 289.70 152.00 L 287.00 148.30 L 283.90 144.80 L 280.40 141.60 L 276.50 138.70 L 272.10 136.10 L 267.40 133.80 L 262.50 131.90 L 257.10 130.30 L 251.70 129.20 L 246.00 128.50 L 240.00 128.30 L 234.30 128.50 L 228.80 129.10 L 223.60 130.10 L 218.60 131.50 L 213.70 133.30 L 209.20 135.40 L 205.00 137.70 L 201.20 140.30 L 197.60 143.30 L 194.40 146.50 L 191.70 149.90 L 189.50 153.40 L 187.60 157.20 L 186.30 161.10 L 185.40 165.20 L 185.10 169.40 L 179.50 169.80 L 174.10 170.70 L 169.10 172.10 L 164.30 174.10 L 160.00 176.60 L 156.10 179.50 L 152.50 182.80 L 149.60 186.40 L 147.20 190.40 L 145.80 193.50 L 144.80 196.80 L 144.20 200.20 L 144.00 203.70 L 144.20 207.30 L 144.80 210.60 L 145.80 213.90 L 147.20 217.10 L 149.60 221.00 L 152.50 224.60 L 156.10 228.00 L 160.00 230.80 L 164.30 233.30 L 169.10 235.30 L 174.10 236.80 L 179.50 237.70 L 185.10 238.00 L 253.70 238.00" fill="none" group-id="1,2" node-id="54" stroke="#101129" stroke-linecap="round" stroke-width="8" target-height="109.7" target-width="191.4" target-x="144" target-y="128.3"></path><path d="M 386.90 766.70 L 392.00 787.40 L 392.70 789.00 L 393.70 790.40 L 395.10 791.50 L 396.70 792.10 L 417.50 797.20 L 418.30 797.80 L 418.70 798.80 L 418.30 799.80 L 417.50 800.40 L 396.70 805.50 L 395.10 806.10 L 393.70 807.20 L 392.70 808.50 L 392.00 810.20 L 386.90 830.90 L 386.30 831.80 L 384.80 832.10 L 383.80 830.90 L 378.60 810.20 L 378.00 808.50 L 376.90 807.20 L 375.60 806.10 L 373.90 805.50 L 353.20 800.40 L 352.00 799.30 L 352.00 798.30 L 353.20 797.20 L 373.90 792.10 L 375.60 791.50 L 376.90 790.40 L 378.00 789.00 L 378.60 787.40 L 383.80 766.70 L 384.30 765.80 L 385.30 765.50 L 386.30 765.80 L 386.90 766.70 Z" fill="#ccdeff" fill-rule="nonzero" group-id="1,2" node-id="56" stroke="none" target-height="66.599976" target-width="66.70001" target-x="352" target-y="765.5"></path><path d="M 851.20 113.70 L 856.30 134.40 L 857.00 136.10 L 858.00 137.40 L 859.40 138.50 L 861.00 139.10 L 881.80 144.20 L 882.70 144.80 L 883.00 145.80 L 882.70 146.80 L 881.80 147.40 L 861.00 152.50 L 859.40 153.10 L 858.00 154.20 L 856.90 155.50 L 856.30 157.20 L 851.20 177.90 L 850.60 178.80 L 849.10 179.10 L 848.00 177.90 L 843.00 157.20 L 842.30 155.50 L 841.30 154.20 L 839.90 153.10 L 838.30 152.50 L 817.50 147.40 L 816.40 146.30 L 816.40 145.30 L 817.50 144.20 L 838.30 139.10 L 839.90 138.50 L 841.30 137.40 L 842.30 136.10 L 843.00 134.40 L 848.10 113.70 L 848.70 112.80 L 849.70 112.50 L 850.60 112.80 L 851.20 113.70 Z" fill="#ccdeff" fill-rule="nonzero" group-id="1,2" node-id="58" stroke="none" target-height="66.600006" target-width="66.599976" target-x="816.4" target-y="112.5"></path><path d="M 603.10 133.30 L 609.00 157.10 L 609.70 159.00 L 610.90 160.60 L 612.50 161.80 L 614.40 162.60 L 638.20 168.40 L 639.20 169.10 L 639.60 170.20 L 639.20 171.40 L 638.20 172.00 L 614.40 177.90 L 612.50 178.60 L 610.90 179.80 L 609.70 181.40 L 609.00 183.30 L 603.10 207.10 L 602.40 208.10 L 601.30 208.50 L 600.70 208.40 L 599.50 207.10 L 593.60 183.30 L 592.90 181.40 L 591.70 179.80 L 590.10 178.60 L 588.20 177.90 L 564.40 172.00 L 563.10 170.80 L 563.10 169.60 L 564.40 168.40 L 588.20 162.50 L 590.10 161.80 L 591.70 160.60 L 592.90 159.00 L 593.60 157.10 L 599.50 133.30 L 600.10 132.30 L 601.30 131.90 L 602.40 132.30 L 603.10 133.30 Z" fill="#ccdeff" fill-rule="nonzero" group-id="1,2" node-id="60" stroke="none" target-height="76.600006" target-width="76.5" target-x="563.1" target-y="131.9"></path><path d="M 640.00 528.00 L 639.70 532.40 L 638.90 536.50 L 637.50 540.50 L 635.60 544.20 L 633.30 547.60 L 630.60 550.60 L 627.60 553.30 L 624.20 555.60 L 620.50 557.50 L 616.50 558.90 L 612.40 559.70 L 608.00 560.00 L 603.60 559.70 L 599.50 558.90 L 595.50 557.50 L 591.80 555.60 L 588.40 553.30 L 585.40 550.60 L 582.70 547.60 L 580.40 544.20 L 578.50 540.50 L 577.10 536.50 L 576.30 532.40 L 576.00 528.00 L 576.30 523.60 L 577.10 519.50 L 578.50 515.50 L 580.40 511.80 L 582.70 508.40 L 585.40 505.40 L 588.40 502.70 L 591.80 500.40 L 595.50 498.50 L 599.50 497.10 L 603.60 496.30 L 608.00 496.00 L 612.40 496.30 L 616.50 497.10 L 620.50 498.50 L 624.20 500.40 L 627.60 502.70 L 630.60 505.40 L 633.30 508.40 L 635.60 511.80 L 637.50 515.50 L 638.90 519.50 L 639.70 523.60 L 640.00 528.00 Z" fill="#ffdc8a" fill-rule="nonzero" group-id="1,2" node-id="62" stroke="#101129" stroke-linecap="round" stroke-width="8" target-height="64" target-width="64" target-x="576" target-y="496"></path><path d="M 448.00 528.00 L 447.70 532.40 L 446.90 536.50 L 445.50 540.50 L 443.60 544.20 L 441.30 547.60 L 438.60 550.60 L 435.60 553.30 L 432.20 555.60 L 428.50 557.50 L 424.50 558.90 L 420.40 559.70 L 416.00 560.00 L 411.60 559.70 L 407.50 558.90 L 403.50 557.50 L 399.80 555.60 L 396.40 553.30 L 393.40 550.60 L 390.70 547.60 L 388.40 544.20 L 386.50 540.50 L 385.10 536.50 L 384.30 532.40 L 384.00 528.00 L 384.30 523.60 L 385.10 519.50 L 386.50 515.50 L 388.40 511.80 L 390.70 508.40 L 393.40 505.40 L 396.40 502.70 L 399.80 500.40 L 403.50 498.50 L 407.50 497.10 L 411.60 496.30 L 416.00 496.00 L 420.40 496.30 L 424.50 497.10 L 428.50 498.50 L 432.20 500.40 L 435.60 502.70 L 438.60 505.40 L 441.30 508.40 L 443.60 511.80 L 445.50 515.50 L 446.90 519.50 L 447.70 523.60 L 448.00 528.00 Z" fill="#81e6c1" fill-rule="nonzero" group-id="1,2" node-id="64" stroke="#101129" stroke-linecap="round" stroke-width="8" target-height="64" target-width="64" target-x="384" target-y="496"></path><path d="M 306.00 444.00 L 306.20 427.00 L 306.80 422.20 L 309.10 413.00 L 310.80 408.60 L 315.00 400.40 L 317.60 396.60 L 321.50 391.80 L 325.80 387.50 L 330.60 383.60 L 338.40 378.70 L 342.60 376.80 L 351.60 373.80 L 356.20 372.80 L 366.00 372.00 L 659.00 372.00 L 668.80 372.80 L 678.00 375.10 L 682.40 376.80 L 690.60 381.00 L 694.40 383.60 L 699.20 387.50 L 703.50 391.80 L 707.40 396.60 L 712.30 404.40 L 714.20 408.60 L 717.20 417.60 L 718.80 427.00 L 719.00 444.00 Z" fill="#80adff" fill-rule="nonzero" group-id="1,2" node-id="66" stroke="none" target-height="72" target-width="413" target-x="306" target-y="372"></path><path d="M 659.00 376.00 L 663.60 376.20 L 672.50 377.60 L 676.70 378.90 L 682.10 381.00 L 687.30 383.70 L 692.10 386.80 L 696.50 390.50 L 700.50 394.50 L 704.20 398.90 L 707.30 403.70 L 710.00 408.90 L 712.10 414.30 L 714.20 422.90 L 714.80 427.40 L 715.00 440.00 L 310.00 440.00 L 310.20 427.40 L 311.60 418.50 L 312.90 414.30 L 315.00 408.90 L 317.70 403.70 L 320.80 398.90 L 324.50 394.50 L 328.50 390.50 L 332.90 386.80 L 337.70 383.70 L 342.90 381.00 L 348.30 378.90 L 356.90 376.80 L 366.00 376.00 L 659.00 376.00 M 659.00 368.00 L 366.00 368.00 L 360.70 368.20 L 355.60 368.80 L 350.60 369.90 L 341.10 373.00 L 336.60 375.20 L 328.20 380.30 L 324.30 383.40 L 317.40 390.30 L 311.60 398.30 L 307.00 407.10 L 305.30 411.80 L 303.90 416.60 L 302.80 421.60 L 302.20 426.70 L 302.00 432.00 L 302.00 448.00 L 723.00 448.00 L 722.80 426.70 L 722.20 421.60 L 721.10 416.60 L 719.70 411.80 L 715.80 402.60 L 713.40 398.30 L 707.60 390.30 L 700.70 383.40 L 696.80 380.30 L 688.40 375.20 L 683.90 373.00 L 674.40 369.90 L 669.40 368.80 L 664.30 368.20 L 659.00 368.00 Z" fill="#101129" fill-rule="nonzero" group-id="1,2" node-id="68" stroke="none" target-height="80" target-width="421" target-x="302" target-y="368"></path><path d="M 368.00 406.00 L 367.70 408.90 L 367.00 411.60 L 365.80 414.10 L 364.20 416.30 L 362.30 418.20 L 360.10 419.80 L 357.60 421.00 L 354.90 421.70 L 352.00 422.00 L 349.10 421.70 L 346.40 421.00 L 343.90 419.80 L 341.70 418.20 L 339.80 416.30 L 338.20 414.10 L 337.00 411.60 L 336.30 408.90 L 336.00 406.00 L 336.30 403.10 L 337.00 400.40 L 338.20 397.90 L 339.80 395.70 L 341.70 393.80 L 343.90 392.20 L 346.40 391.00 L 349.10 390.30 L 352.00 390.00 L 354.90 390.30 L 357.60 391.00 L 360.10 392.20 L 362.30 393.80 L 364.20 395.70 L 365.80 397.90 L 367.00 400.40 L 367.70 403.10 L 368.00 406.00 Z" fill="#ffffff" fill-rule="nonzero" group-id="1,2" node-id="70" stroke="none" target-height="32" target-width="32" target-x="336" target-y="390"></path><path d="M 411.00 406.00 L 410.70 408.90 L 410.00 411.60 L 408.80 414.10 L 407.20 416.30 L 405.30 418.20 L 403.10 419.80 L 400.60 421.00 L 397.90 421.70 L 395.00 422.00 L 392.10 421.70 L 389.40 421.00 L 386.90 419.80 L 384.70 418.20 L 382.80 416.30 L 381.20 414.10 L 380.00 411.60 L 379.30 408.90 L 379.00 406.00 L 379.30 403.10 L 380.00 400.40 L 381.20 397.90 L 382.80 395.70 L 384.70 393.80 L 386.90 392.20 L 389.40 391.00 L 392.10 390.30 L 395.00 390.00 L 397.90 390.30 L 400.60 391.00 L 403.10 392.20 L 405.30 393.80 L 407.20 395.70 L 408.80 397.90 L 410.00 400.40 L 410.70 403.10 L 411.00 406.00 Z" fill="#ffffff" fill-rule="nonzero" group-id="1,2" node-id="72" stroke="none" target-height="32" target-width="32" target-x="379" target-y="390"></path><path d="M 456.00 406.00 L 455.70 408.90 L 455.00 411.60 L 453.80 414.10 L 452.20 416.30 L 450.30 418.20 L 448.10 419.80 L 445.60 421.00 L 442.90 421.70 L 440.00 422.00 L 437.10 421.70 L 434.40 421.00 L 431.90 419.80 L 429.70 418.20 L 427.80 416.30 L 426.20 414.10 L 425.00 411.60 L 424.30 408.90 L 424.00 406.00 L 424.30 403.10 L 425.00 400.40 L 426.20 397.90 L 427.80 395.70 L 429.70 393.80 L 431.90 392.20 L 434.40 391.00 L 437.10 390.30 L 440.00 390.00 L 442.90 390.30 L 445.60 391.00 L 448.10 392.20 L 450.30 393.80 L 452.20 395.70 L 453.80 397.90 L 455.00 400.40 L 455.70 403.10 L 456.00 406.00 Z" fill="#ffffff" fill-rule="nonzero" group-id="1,2" node-id="74" stroke="none" target-height="32" target-width="32" target-x="424" target-y="390"></path><path d="M 115.10 709.20 L 105.20 703.30 L 96.10 696.20 L 88.10 688.00 L 81.20 678.70 L 77.20 672.00 L 73.70 664.80 L 70.50 657.20 L 67.80 648.90 L 65.50 640.10 L 63.80 630.30 L 106.20 630.30 L 107.40 637.30 L 109.00 643.40 L 111.10 649.00 L 113.70 654.00 L 116.70 658.60 L 120.10 662.70 L 124.10 666.40 L 128.30 669.70 L 133.00 672.50 L 138.00 674.80 L 143.50 676.60 L 149.40 678.00 L 155.80 678.80 L 162.90 679.10 L 169.90 678.80 L 176.40 678.00 L 182.30 676.60 L 187.70 674.80 L 192.70 672.40 L 197.20 669.60 L 201.40 666.30 L 205.20 662.50 L 209.00 657.80 L 212.30 652.50 L 215.00 646.60 L 217.20 640.10 L 218.90 632.80 L 219.90 624.70 L 220.20 615.70 L 220.20 574.90 L 219.90 566.00 L 219.00 558.10 L 217.50 551.00 L 215.40 544.60 L 212.90 538.80 L 210.00 533.70 L 206.60 529.10 L 202.50 524.90 L 198.00 521.30 L 193.10 518.40 L 187.70 516.00 L 181.70 514.30 L 175.10 513.20 L 167.70 512.90 L 162.10 513.10 L 156.60 513.90 L 151.20 515.20 L 146.00 516.90 L 140.90 519.20 L 136.00 521.90 L 130.30 525.70 L 124.90 530.10 L 119.60 535.30 L 114.50 541.20 L 109.60 548.00 L 71.60 548.00 L 71.60 361.00 L 252.50 361.00 L 252.50 401.00 L 114.00 401.00 L 114.00 494.30 L 121.80 487.80 L 130.40 482.40 L 134.90 480.10 L 144.30 476.30 L 149.10 474.80 L 159.10 472.90 L 169.20 472.30 L 179.20 472.70 L 188.60 473.70 L 197.20 475.40 L 205.30 477.80 L 212.80 480.70 L 219.80 484.30 L 225.70 487.90 L 231.00 492.00 L 236.00 496.50 L 240.50 501.50 L 244.70 506.90 L 248.50 512.80 L 251.80 519.30 L 255.00 526.90 L 257.70 535.00 L 259.80 543.80 L 261.40 553.40 L 262.40 563.70 L 262.70 574.80 L 262.70 615.60 L 262.30 626.90 L 261.30 637.40 L 259.60 647.00 L 257.30 656.00 L 254.40 664.20 L 251.00 671.90 L 248.00 677.40 L 244.60 682.70 L 240.80 687.60 L 236.70 692.30 L 232.20 696.60 L 227.40 700.60 L 222.30 704.20 L 216.80 707.40 L 209.40 711.00 L 201.40 714.00 L 192.80 716.40 L 183.50 718.10 L 173.60 719.20 L 162.80 719.60 L 153.70 719.30 L 145.20 718.40 L 137.10 716.90 L 129.40 714.90 L 122.10 712.30 L 115.10 709.20 Z" fill="#ffffff" fill-rule="nonzero" group-id="1,2" node-id="76" stroke="#101129" stroke-linecap="round" stroke-width="8" target-height="358.59998" target-width="198.90001" target-x="63.8" target-y="361"></path><path d="M 777.70 692.50 L 772.50 686.50 L 767.90 680.10 L 763.90 673.20 L 760.40 665.80 L 757.50 657.70 L 755.20 649.00 L 753.40 639.50 L 752.40 629.30 L 752.00 618.20 L 752.00 456.90 L 752.40 445.70 L 753.40 435.40 L 755.20 426.00 L 757.50 417.20 L 760.50 409.10 L 764.00 401.70 L 768.00 394.80 L 772.70 388.40 L 777.90 382.50 L 783.00 377.70 L 788.60 373.40 L 794.60 369.50 L 801.20 366.10 L 808.20 363.20 L 815.90 360.70 L 824.10 358.70 L 833.10 357.20 L 842.80 356.30 L 853.30 356.00 L 863.90 356.30 L 873.60 357.20 L 882.60 358.70 L 890.90 360.70 L 898.60 363.10 L 905.70 366.10 L 912.20 369.50 L 918.20 373.30 L 923.70 377.60 L 928.90 382.40 L 934.00 388.20 L 938.60 394.60 L 942.70 401.40 L 946.20 408.90 L 949.10 417.00 L 951.40 425.80 L 953.20 435.30 L 954.20 445.60 L 954.60 456.80 L 954.60 618.20 L 954.20 629.40 L 953.20 639.70 L 951.40 649.10 L 949.10 657.90 L 946.20 666.00 L 942.70 673.40 L 938.60 680.30 L 933.90 686.70 L 928.70 692.60 L 923.60 697.40 L 918.00 701.70 L 912.00 705.60 L 905.50 709.00 L 898.40 711.90 L 890.70 714.40 L 882.50 716.40 L 873.50 717.80 L 863.80 718.70 L 853.30 719.10 L 842.70 718.70 L 833.00 717.80 L 824.00 716.40 L 815.70 714.40 L 808.00 711.90 L 800.90 708.90 L 794.40 705.50 L 788.40 701.60 L 782.80 697.30 L 777.70 692.50 Z M 897.80 663.30 L 901.40 658.80 L 904.50 653.80 L 907.10 648.10 L 909.20 641.90 L 910.80 634.90 L 911.80 627.00 L 912.10 618.30 L 912.10 456.90 L 911.80 448.00 L 910.80 440.10 L 909.20 433.00 L 907.10 426.70 L 904.50 421.10 L 901.40 416.10 L 897.80 411.70 L 894.30 408.20 L 890.20 405.20 L 885.70 402.60 L 880.60 400.40 L 874.90 398.60 L 868.50 397.20 L 861.30 396.40 L 853.30 396.10 L 845.20 396.40 L 838.10 397.20 L 831.70 398.60 L 825.90 400.40 L 820.90 402.60 L 816.30 405.20 L 812.30 408.20 L 808.70 411.70 L 805.20 416.10 L 802.10 421.10 L 799.50 426.70 L 797.40 433.00 L 795.80 440.10 L 794.80 448.00 L 794.50 456.90 L 794.50 618.20 L 794.80 627.00 L 795.80 634.80 L 797.30 641.90 L 799.40 648.10 L 802.00 653.70 L 805.10 658.80 L 808.70 663.20 L 812.30 666.70 L 816.30 669.80 L 820.90 672.40 L 826.00 674.60 L 831.70 676.50 L 838.10 677.80 L 845.30 678.70 L 853.30 679.00 L 861.30 678.70 L 868.50 677.80 L 874.90 676.50 L 880.60 674.70 L 885.70 672.40 L 890.20 669.80 L 894.30 666.70 L 897.80 663.30 Z" fill="#ffffff" fill-rule="nonzero" group-id="1,2" node-id="78" stroke="#101129" stroke-linecap="round" stroke-width="8" target-height="363.09998" target-width="202.59998" target-x="752" target-y="356"></path><path d="M 176.00 864.00 L 175.70 868.40 L 174.90 872.50 L 173.50 876.50 L 171.60 880.20 L 169.30 883.60 L 166.60 886.60 L 163.60 889.30 L 160.20 891.60 L 156.50 893.50 L 152.50 894.90 L 148.40 895.70 L 144.00 896.00 L 139.60 895.70 L 135.50 894.90 L 131.50 893.50 L 127.80 891.60 L 124.40 889.30 L 121.40 886.60 L 118.70 883.60 L 116.40 880.20 L 114.50 876.50 L 113.10 872.50 L 112.30 868.40 L 112.00 864.00 L 112.30 859.60 L 113.10 855.50 L 114.50 851.50 L 116.40 847.80 L 118.70 844.40 L 121.40 841.40 L 124.40 838.70 L 127.80 836.40 L 131.50 834.50 L 135.50 833.10 L 139.60 832.30 L 144.00 832.00 L 148.40 832.30 L 152.50 833.10 L 156.50 834.50 L 160.20 836.40 L 163.60 838.70 L 166.60 841.40 L 169.30 844.40 L 171.60 847.80 L 173.50 851.50 L 174.90 855.50 L 175.70 859.60 L 176.00 864.00 Z" fill="#ccdeff" fill-rule="nonzero" group-id="1,2" node-id="80" stroke="none" target-height="64" target-width="64" target-x="112" target-y="832"></path><path d="M 736.00 388.00 L 734.40 387.70 L 733.20 386.80 L 732.30 385.60 L 731.10 375.10 L 730.00 370.90 L 728.50 366.90 L 726.70 363.00 L 724.50 359.40 L 721.90 356.00 L 719.10 352.90 L 716.00 350.10 L 712.60 347.50 L 709.00 345.30 L 705.10 343.50 L 701.10 342.00 L 696.90 340.90 L 692.60 340.20 L 688.00 340.00 L 624.00 340.00 L 622.40 339.70 L 621.20 338.80 L 620.30 337.60 L 620.00 336.00 L 620.30 334.40 L 621.20 333.20 L 622.40 332.30 L 624.00 332.00 L 688.00 332.00 L 693.40 332.30 L 698.50 333.10 L 703.50 334.40 L 708.20 336.10 L 712.80 338.30 L 717.10 340.90 L 721.00 343.90 L 724.80 347.20 L 728.10 351.00 L 731.10 354.90 L 733.70 359.20 L 735.90 363.80 L 737.60 368.50 L 738.90 373.50 L 739.70 378.60 L 740.00 384.00 L 739.70 385.60 L 738.80 386.80 L 737.60 387.70 L 736.00 388.00 Z" fill="#101129" fill-rule="nonzero" group-id="1,2" node-id="82" stroke="none" target-height="56" target-width="120" target-x="620" target-y="332"></path><path d="M 592.00 340.00 L 544.00 340.00 L 542.40 339.70 L 541.20 338.80 L 540.30 337.60 L 540.00 336.00 L 540.30 334.40 L 541.20 333.20 L 542.40 332.30 L 544.00 332.00 L 592.00 332.00 L 593.60 332.30 L 594.80 333.20 L 595.70 334.40 L 596.00 336.00 L 595.70 337.60 L 594.80 338.80 L 593.60 339.70 L 592.00 340.00 Z" fill="#101129" fill-rule="nonzero" group-id="1,2" node-id="84" stroke="none" target-height="8" target-width="56" target-x="540" target-y="332"></path></g></g></svg>