<svg xmlns="http://www.w3.org/2000/svg" width="500" height="373" fill="none"><g opacity=".917"><mask id="a" width="500" height="1" x="0" y="327" mask-type="alpha" maskUnits="userSpaceOnUse"><path fill="#C4C4C4" fill-rule="evenodd" d="M0 327h500v1H0z"/></mask><g mask="url(#a)"><path fill="#E4E4DE" fill-rule="evenodd" d="M0 327.62h500v-.25H0z"/></g><path fill="#E4E4DE" fill-rule="evenodd" d="M397 343.62h53v-.25h-53zM273 340.62h59v-.25h-59zM380 339.62h19v-.25h-19z"/><path fill="#D0D9E6" fill-rule="evenodd" d="M100 336.62h43v-.25h-43zM79 336.62h15v-.25H79zM131 340.62h54v-.25h-54z"/><path fill="#D0D9E6" fill-rule="evenodd" d="M43.708 282.847h193.099a5.714 5.714 0 0 0 5.707-5.708V5.708A5.715 5.715 0 0 0 236.807 0H43.708A5.714 5.714 0 0 0 38 5.708v271.431a5.714 5.714 0 0 0 5.708 5.708M38.25 5.708A5.464 5.464 0 0 1 43.708.25h193.099a5.465 5.465 0 0 1 5.457 5.458v271.431a5.464 5.464 0 0 1-5.457 5.458H43.708a5.464 5.464 0 0 1-5.458-5.458V5.708M260.707 282.847h193.099a5.714 5.714 0 0 0 5.708-5.708V5.708A5.715 5.715 0 0 0 453.806 0H260.707A5.714 5.714 0 0 0 255 5.708v271.431a5.713 5.713 0 0 0 5.707 5.708M255.25 5.708A5.464 5.464 0 0 1 260.707.25h193.099a5.465 5.465 0 0 1 5.458 5.458v271.431a5.464 5.464 0 0 1-5.458 5.458H260.707a5.463 5.463 0 0 1-5.457-5.458V5.708" clip-rule="evenodd"/><path fill="#E3ECFA" fill-rule="evenodd" d="M117.87 267H57.12c-2.82 0-5.12-2.23-5.12-4.94v-2.13c0-2.71 2.3-4.93 5.12-4.93h60.75c2.82 0 5.13 2.22 5.13 4.93v2.13c0 2.71-2.31 4.94-5.13 4.94"/><path fill="#DAE2F0" fill-rule="evenodd" d="M71 267h-9.83L50 327h9.82zM92 267H81.74L76 327h10.25zM103 267h9.82L124 327h-9.83zM197 220h234V16H197z"/><path fill="#E3ECFA" fill-rule="evenodd" d="M200 220h237V16H200z"/><path fill="#DDDED8" fill-rule="evenodd" d="M197 223h234v-4H197z"/><path fill="#DAE2F0" fill-rule="evenodd" d="M204 223h237v-4H204z"/><path fill="#FCFEFF" fill-rule="evenodd" d="M210 213h218V22H210z"/><path fill="#FFFFFE" fill-rule="evenodd" d="m280 213 40.9-191H348l-40.91 191zM248 213l40.9-191H316l-40.91 191z"/><path fill="#EAEAE5" fill-rule="evenodd" d="M215 22.51v177.97c0 .28.4.52.9.52h1.19c.5 0 .91-.24.91-.52V22.51c0-.28-.41-.51-.91-.51h-1.19c-.5 0-.9.23-.9.51"/><path fill="#FFFFFE" fill-rule="evenodd" d="m350 213 41.32-191H402l-41.33 191z"/><path fill="#DAE2F0" fill-rule="evenodd" d="M427 213h1V22h-1z"/><path fill="#E3ECFA" fill-rule="evenodd" d="M440 29h-2v-5h1.22z"/><path fill="#DAE2F0" fill-rule="evenodd" d="M428 29h10v-5h-10z"/><path fill="#E3ECFA" fill-rule="evenodd" d="M378.266 29.461h11.082L390.522 24H378zm21.683 0h27.032V24h-25.858z" clip-rule="evenodd"/><path fill="#EBF3FF" fill-rule="evenodd" d="M399.8 29H389l1.19-5H401z"/><path fill="#CCD3E0" fill-rule="evenodd" d="M427 29h1v-5h-1z"/><path fill="#E3ECFA" fill-rule="evenodd" d="M440 48h-2v-5h1.22z"/><path fill="#DAE2F0" fill-rule="evenodd" d="M428 48h10v-5h-10z"/><path fill="#E3ECFA" fill-rule="evenodd" d="M379.266 48.461h6.142L386.582 43H379zm16.742 0h31.061V43h-29.887z" clip-rule="evenodd"/><path fill="#EBF3FF" fill-rule="evenodd" d="M395.8 48H385l1.19-5H397z"/><path fill="#CCD3E0" fill-rule="evenodd" d="M427 48h1v-5h-1z"/><path fill="#E3ECFA" fill-rule="evenodd" d="M440 67h-2v-5h1.22z"/><path fill="#DAE2F0" fill-rule="evenodd" d="M428 67h10v-5h-10z"/><path fill="#E3ECFA" fill-rule="evenodd" d="M380.266 67.461h1.2L382.641 62H380zm11.801 0h35.089V62h-33.915z" clip-rule="evenodd"/><path fill="#EBF3FF" fill-rule="evenodd" d="M391.8 67H381l1.19-5H393z"/><path fill="#CCD3E0" fill-rule="evenodd" d="M427 67h1v-5h-1z"/><path fill="#E3ECFA" fill-rule="evenodd" d="M440 86h-2v-5h1.22z"/><path fill="#DAE2F0" fill-rule="evenodd" d="M428 86h10v-5h-10z"/><path fill="#E3ECFA" fill-rule="evenodd" d="M427 86h-39l1.17-5H427z"/><path fill="#EBF3FF" fill-rule="evenodd" d="M387.86 86h-6.61l-.25-5h8z"/><path fill="#CCD3E0" fill-rule="evenodd" d="M427 86h1v-5h-1z"/><path fill="#E3ECFA" fill-rule="evenodd" d="M440 104h-2v-5h1.22z"/><path fill="#DAE2F0" fill-rule="evenodd" d="M428 104h10v-5h-10z"/><path fill="#E3ECFA" fill-rule="evenodd" d="M427 104h-43l1.17-5H427z"/><path fill="#EBF3FF" fill-rule="evenodd" d="M382.95 104h-1.72l-.23-5h3z"/><path fill="#CCD3E0" fill-rule="evenodd" d="M427 104h1v-5h-1z"/><path fill="#E3ECFA" fill-rule="evenodd" d="M440 123h-2v-5h1.22z"/><path fill="#DAE2F0" fill-rule="evenodd" d="M428 123h10v-5h-10z"/><path fill="#E3ECFA" fill-rule="evenodd" d="M426 123h-41.89c-.5-.78-1.18-1.81-2.01-2.98L382 118h44z"/><path fill="#CCD3E0" fill-rule="evenodd" d="M427 123h1v-5h-1z"/><path fill="#E3ECFA" fill-rule="evenodd" d="M440 39h-2v-5h1.22z"/><path fill="#DAE2F0" fill-rule="evenodd" d="M428 39h10v-5h-10z"/><path fill="#E3ECFA" fill-rule="evenodd" d="M378.266 39.461h8.612L388.052 34H378zm19.213 0h29.046V34h-27.872z" clip-rule="evenodd"/><path fill="#EBF3FF" fill-rule="evenodd" d="M397.8 39H387l1.19-5H399z"/><path fill="#CCD3E0" fill-rule="evenodd" d="M427 39h1v-5h-1z"/><path fill="#E3ECFA" fill-rule="evenodd" d="M440 58h-2v-5h1.22z"/><path fill="#DAE2F0" fill-rule="evenodd" d="M428 58h10v-5h-10z"/><path fill="#E3ECFA" fill-rule="evenodd" d="M379.265 58.461h3.671L384.111 53H379zm14.272 0h33.075V53h-31.901z" clip-rule="evenodd"/><path fill="#EBF3FF" fill-rule="evenodd" d="M393.8 58H383l1.19-5H395z"/><path fill="#CCD3E0" fill-rule="evenodd" d="M427 58h1v-5h-1z"/><path fill="#E3ECFA" fill-rule="evenodd" d="M440 76h-2v-5h1.22z"/><path fill="#DAE2F0" fill-rule="evenodd" d="M428 76h10v-5h-10z"/><path fill="#E3ECFA" fill-rule="evenodd" d="m380 71 .031.646.139-.646zm9.597 5.461H426.7V71h-35.929z" clip-rule="evenodd"/><path fill="#EBF3FF" fill-rule="evenodd" d="M389.79 76h-9.55l-.24-4.41.14-.59H391z"/><path fill="#CCD3E0" fill-rule="evenodd" d="M427 76h1v-5h-1z"/><path fill="#E3ECFA" fill-rule="evenodd" d="M440 95h-2v-5h1.22z"/><path fill="#DAE2F0" fill-rule="evenodd" d="M428 95h10v-5h-10z"/><path fill="#E3ECFA" fill-rule="evenodd" d="M427 95h-41l1.17-5H427z"/><path fill="#EBF3FF" fill-rule="evenodd" d="M385.79 95h-4.52l-.27-5h6z"/><path fill="#CCD3E0" fill-rule="evenodd" d="M427 95h1v-5h-1z"/><path fill="#E3ECFA" fill-rule="evenodd" d="M440 114h-2v-5h1.22z"/><path fill="#DAE2F0" fill-rule="evenodd" d="M428 114h10v-5h-10z"/><path fill="#E3ECFA" fill-rule="evenodd" d="M427 114h-44.9l-.1-1.91.73-3.09H427z"/><path fill="#E9E9E4" fill-rule="evenodd" d="m382.21 112-.16-3h.89z"/><path fill="#CCD3E0" fill-rule="evenodd" d="M427 114h1v-5h-1z"/><path fill="#E3ECFA" fill-rule="evenodd" d="M440 133h-2v-5h1.22z"/><path fill="#DAE2F0" fill-rule="evenodd" d="M428 133h10v-5h-10z"/><path fill="#E3ECFA" fill-rule="evenodd" d="M426 133h-38.96c-.39-.7-.78-1.38-1.18-2.05-.59-1.01-1.22-1.99-1.86-2.95h42z"/><path fill="#CCD3E0" fill-rule="evenodd" d="M427 133h1v-5h-1z"/><path fill="#DDDED8" fill-rule="evenodd" d="M400 328h31v-93h-31z"/><path fill="#E3ECFA" fill-rule="evenodd" d="M411.96 328H431v-11h-39z"/><path fill="#DAE2F0" fill-rule="evenodd" d="M307 328h31v-93h-31z"/><path fill="#E3ECFA" fill-rule="evenodd" d="M322 326h109v-91H322z"/><path fill="#E3ECFA" fill-rule="evenodd" d="M341.03 328H322v-11h39z"/><path fill="#FCFEFF" fill-rule="evenodd" d="M336 292h80v-47h-80zM336 319h80v-22h-80z"/><path fill="#E4E4DE" fill-rule="evenodd" d="M382.79 247H368.2c-2.32 0-4.2-1.79-4.2-4h23c0 2.21-1.89 4-4.21 4"/><path fill="#E3ECFA" fill-rule="evenodd" d="M382.79 299H368.2c-2.32 0-4.2-1.8-4.2-4h23c0 2.2-1.89 4-4.21 4M282 328h31v-93h-31z"/><path fill="#E3ECFA" fill-rule="evenodd" d="M294.96 328H314v-11h-39z"/><path fill="#DAE2F0" fill-rule="evenodd" d="M190 328h31v-93h-31z"/><path fill="#E3ECFA" fill-rule="evenodd" d="M204 326h109v-91H204z"/><path fill="#E3ECFA" fill-rule="evenodd" d="M223.03 328H204v-11h39z"/><path fill="#FCFEFF" fill-rule="evenodd" d="M219 292h80v-47h-80zM219 319h80v-22h-80z"/><path fill="#E4E4DE" fill-rule="evenodd" d="M265.79 247H251.2c-2.32 0-4.2-1.79-4.2-4h23c0 2.21-1.89 4-4.21 4"/><path fill="#E3ECFA" fill-rule="evenodd" d="M265.79 299H251.2c-2.32 0-4.2-1.8-4.2-4h23c0 2.2-1.89 4-4.21 4"/><path fill="#DAE2F0" fill-rule="evenodd" d="M204 235h226v-4H204z"/><path fill="#D4D5CF" fill-rule="evenodd" d="M190 235h15v-4h-15z"/><path fill="#DDDED8" fill-rule="evenodd" d="M84.67 240.72c-1.44-36.53-2.99-72.84.17-91.16L90 146s-1.13 3.41-1.73 59.37c-.41 38.89-.89 36.78-.93 34.67-.02-.93.04-1.86.24.68z"/><path fill="#DDDED8" fill-rule="evenodd" d="M92.52 110.72c7.7-20.17 25.63-39.65 45.11-47.62 7.65-3.13-3.37 65.67-31.1 70.11-13.54 2.16-17.76 37.03-20.04 53.79-.78-32.96-1.66-56.1 6.03-76.28"/><path fill="#DDDED8" fill-rule="evenodd" d="M90.44 161.6c5.41-8.58 14.25-20.59 27.17-20.6 14.64-.02 1.82 24.11-15.39 31.82-8.4 3.76-15.41 15.7-17.22 23.18.15-15.15.03-25.82 5.44-34.4"/><path fill="#DAE2F0" fill-rule="evenodd" d="M77.5 136.29c-9.43-16.71-30.44-33.52-52.82-41.16-8.78-3.01-9.65 46.5 37.71 58.34C77.69 157.3 83.82 184.38 87 198c-.27-26.45-.07-45-9.5-61.71"/><path fill="#DAE2F0" fill-rule="evenodd" d="M83.48 175.93c-6.07-10.62-22.56-15.81-37.39-14.81-5.83.38-6.46 22.17 25.93 30.59 9.83 2.55 13.79 19.64 15.83 28.29-.17-16.81 1.7-33.45-4.37-44.07M83.13 119.14c-4.69-15.01-18.53-28.45-31.24-34.01-4.98-2.18-6.52 22.69 20.75 47.05 8.26 7.39 10.87 28.91 12.22 39.82.62-19.48 2.97-37.86-1.73-52.86"/><path fill="#E3ECFA" fill-rule="evenodd" d="M86.5 255c-10 0-18.26-.73-18.84-14.26L66 223h41l-1.67 17.74C104.76 254.27 96.49 255 86.5 255"/><path fill="#E3ECFA" fill-rule="evenodd" d="M105.83 230H65.16L64 222h43z"/><path fill="#E3ECFA" fill-rule="evenodd" d="M444 361.5c0 6.35-86.86 11.5-194 11.5-107.15 0-194-5.15-194-11.5 0-6.36 86.85-11.5 194-11.5 107.14 0 194 5.14 194 11.5" opacity=".601"/><path fill="#3F8CFF" fill-rule="evenodd" d="M72.99 63 72 43.04l1-.04 1 19.95zM73.32 80 73 70.04l.67-.04.33 9.95zM86.52 247c-.95 0-1.72-.75-1.77-1.69L74 23.86A1.77 1.77 0 0 1 75.77 22h299.7c.95 0 1.72.74 1.77 1.68l10.75 221.45c.05 1.02-.76 1.87-1.77 1.87H86.52Z"/><path fill="#F4F9FD" fill-rule="evenodd" d="M366.764 243.367H90.184a1.771 1.771 0 0 1-1.77-1.686L78.001 27.859A1.774 1.774 0 0 1 79.773 26h292.81c.946 0 1.725.742 1.771 1.687l4.26 87.485c-2.081-2.617-4.413-5.059-6.656-6.368a11.141 11.141 0 0 0-5.553-1.832 59.604 59.604 0 0 0-.422-.022c-3.638-3.513-2.921-10.805-1.822-16.069l-11.036 6.153c.838 3.531.933 7.808-1.944 9.804-.55.032-1.071.069-1.558.113a62.7 62.7 0 0 0-5.164.704c-.399.071-.791.164-1.173.279-1.553.432-3.27 1.301-5.132 2.703-7.643 5.756-13.318 17.95-13.318 17.95l1.812.994a133.358 133.358 0 0 1-5.241 5.445c-1.981 1.937-3.966 3.776-6.122 5.792a3.843 3.843 0 0 1-.401.022 7 7 0 0 1-1.675-.235c-1.016-.252-2.133-.669-3.269-1.193.065-1.246.122-2.486.17-3.707l9.13-.299c.529-4.909-.195-13.084-1.419-21.552-1.045-8.869-2.835-18.968-4.741-29.257l-9.109.578-2.257-46.363a.928.928 0 0 0-.913-.864l-.038.001a.908.908 0 0 0-.862.95l2.259 46.391-37.325 2.371.342 1.513h-.001a235.76 235.76 0 0 1 3.918 21.899l-6.085-.953c.097 17.978-1.836 34.436-4.982 47.37l48.088 9.018 3.118 64.048a.908.908 0 0 0 .905.863l.045-.001c.5-.024.887-.45.863-.95l-3.386-69.531c.674-3.508 1.207-7.711 1.613-12.142.322.148.652.29.991.427 1.235.488 2.607.898 4.177 1.078.436.051.893.079 1.364.079 1.212 0 2.519-.187 3.809-.651l.673-.243.823-.677c2.319-1.909 4.943-3.991 7.375-6.174a108.531 108.531 0 0 0 6.214-5.924 195.91 195.91 0 0 0 .126 5.074c.285 7.847 1.033 17.5 2.482 29.356h7.473l-2.571 8.631 5.37 1.599-.067.441 5.784 1.261.277.083c3.143 14.437 8.442 38.732 12.014 54.894.418 1.894.813 3.677 1.177 5.318m-205.712-12.811-1.044-21.444-22.392 2.276c-1.378-13.455-1.586-29.332-6.554-46.85l26.622-3.163-1.572-32.291-40.793 2.199c-2.784-16.696-3.955-35.372-3.851-49.203l42.276-1.632-2.023-41.549a.909.909 0 0 1 .863-.95l.038-.001c.467 0 .887.376.912.864l2.024 41.566 3.092-.119c.544 15.078 2.404 31.415 4.962 48.421l-5.688.306 1.567 32.174 18.288-2.173c3.445 9.833 9.255 36.069 9.383 47.366l-25.346 2.575 1.049 21.54a.908.908 0 0 1-.862.95l-.045.001a.909.909 0 0 1-.906-.863m14.833-135.183-.002 48.128 48.545 2.929.002-48.128zm203.982 45.546-4.586-1c.043-1.428.099-2.884.172-4.361l.769-.785c1.327 1.985 2.562 3.997 3.639 6.028zm-63.815-.34-.118.073a.733.733 0 0 0 .118-.073m63.391 50.28c1.197 6.569 2.57 14.2 3.924 21.945l-1.026-21.082z" clip-rule="evenodd"/><path fill="#3F8CFF" fill-rule="evenodd" d="M118.03 43.19c-.15.54-.34 1.09-.55 1.64l6.18-.11.01.85-6.54.12c-.4.87-.85 1.69-1.4 2.47l.1 5.75-.88.01-.08-4.69c-.41.46-.87.87-1.37 1.24-.09-.24-.33-.61-.47-.8 1.35-.99 2.38-2.43 3.1-3.97l-2.88.05-.02-.85 3.28-.05c.24-.62.44-1.26.6-1.87zm17.9 1.77.01.78-.55.01c-.2 2-.55 3.62-1.19 4.97.49.89 1.13 1.66 2 2.18-.16.17-.44.49-.54.72-.8-.54-1.42-1.27-1.88-2.1-.55.87-1.25 1.59-2.15 2.18-.11-.15-.41-.46-.57-.6 1.02-.6 1.76-1.41 2.29-2.4-.47-1.06-.77-2.22-.96-3.34-.17.4-.36.77-.55 1.08-.05-.07-.14-.16-.22-.28l.07 4.21-2.71.05.01.78-.79.01-.09-5.01 1.35-.03-.04-2.27-1.66.03-.01-.81 1.65-.03-.03-2.18.84-.02.04 2.18 1.55-.02.02.81-1.55.03.04 2.27 1.28-.03c-.11-.14-.24-.28-.33-.35.79-1.25 1.24-3.14 1.49-5.07l.8.12c-.11.74-.24 1.47-.42 2.18zm-11.17 2.79c1.01-1.21 1.94-3.03 2.48-4.88l.82.21c-.25.81-.57 1.63-.92 2.42l.15 8.27-.83.01-.12-6.74c-.34.59-.72 1.14-1.1 1.6-.09-.19-.34-.68-.48-.89m-14.67-3.27-3.62.06.1 5.54-.86.02-.11-6.34 5.35-.09.11 6.33-.87.02zm-6.38 6.83c.5-.14 1.03-.32 1.54-.48l.13.82-4.05 1.28-.2-.86c.47-.14 1.07-.29 1.72-.49l-.06-3.27-1.42.03-.01-.83 1.42-.02-.05-2.61-1.58.03-.02-.84 3.94-.07.01.84-1.49.03.05 2.6 1.24-.02.01.83-1.24.02zm5.6 1.35c.01.34.11.42.44.42l.97-.02c.44-.01.49-.33.52-2.03.22.16.5.28.72.33-.07 1.88-.19 2.35-1.23 2.37l-1.09.02c-.81.02-1.14-.2-1.16-.99l-.04-2.52c-.39 1.44-1.32 2.88-3.28 3.94-.11-.17-.39-.51-.57-.64 2.98-1.59 3.31-3.85 3.28-5.71l-.04-2.3.84-.02.04 2.33c.01.65-.02 1.32-.18 2.02l.73-.01zm24.46-2.86c.45-1.13.69-2.47.83-4.04l-1.66.03c-.02.08-.04.16-.07.23.17 1.23.42 2.57.9 3.78m-10.5-.47-2.7.05.06 3.37 3.17-.05.01.84-7.21.12-.01-.84 3.15-.05-.06-3.37-2.68.04-.02-.83 2.69-.05-.04-2.29.89-.02.04 2.29 2.7-.04zm5.69 2.31 1.93-.04-.05-2.67-1.92.03zM184.92 45.65c.99-.69 2.12-1.79 2.7-2.65l.86.32c-.76 1.07-1.96 2.26-3.02 3.03a7.25 7.25 0 0 0-.54-.7m17.92-2.91.03 2.13 4.36-.07.1 5.61-.91.02-.02-.69-3.44.06.07 3.89-.93.01-.06-3.88-3.43.06.01.74-.88.02-.1-5.68 4.31-.07-.04-2.14zm-28.77.75c.67.56 1.5 1.38 1.89 1.9l-.66.57c-.38-.54-1.19-1.39-1.86-1.98zm7.12 8.68-.05-3.03-2.1.04c-.16 1.14-.59 2.3-1.63 3.12-.13-.17-.47-.49-.66-.62.88-.69 1.26-1.59 1.42-2.49l-1.65.03-.01-.86 1.74-.03c.02-.26.01-.5.01-.75l-.03-1.39-1.69.03-.01-.87 1.69-.02-.03-1.91.87-.02.03 1.91 1.98-.03-.03-1.91.88-.02.03 1.91 1.54-.03.01.87-1.53.02.03 2.14 1.78-.03.01.86-1.77.03.05 3.04zm8.45-8.47 5.86-.1.01.83-5.85.11zm-4.78 5.52c1.23-.9 2.5-2.3 3.3-3.67l.83.3c-.36.61-.8 1.23-1.28 1.83l.11 6.31-.89.02-.09-5.33c-.45.48-.9.91-1.34 1.27-.13-.18-.45-.56-.64-.73m13.68-3.4.05 3.18 3.43-.06-.05-3.18zm4.35-.07.05 3.18 3.45-.06-.06-3.18zm-21.8.39-1.98.03.02 1.41c.01.24.01.48-.01.73l2.01-.04zm8.09.84 6.72-.11.01.85-1.81.03.09 4.95c.01.56-.12.83-.51.98-.41.14-1.08.16-2.25.18-.05-.24-.17-.61-.31-.86.85.01 1.65-.01 1.87-.02.23-.02.3-.07.3-.27l-.09-4.94-4 .07zm-16.05.59 2.52-.04.08 4.31c.23.14.48.36.88.6.79.47 1.79.54 3.15.51 1.4-.02 3.19-.15 4.34-.3-.1.24-.23.68-.25.93-.84.07-2.96.18-4.12.2-1.47.03-2.47-.1-3.31-.6-.48-.31-.88-.7-1.14-.7-.41.01-.98.73-1.58 1.55l-.6-.79c.62-.68 1.23-1.23 1.75-1.45l-.06-3.4-1.64.02zM252.15 44.37l-.19.07 4.43-.08.03 1.96-.91.01-.02-1.09-8.12.14.02 1.09-.88.02-.03-1.96 4.65-.08c-.15-.33-.36-.77-.56-1.09l.9-.28c.24.41.54.96.68 1.29m23.69-1.63.03 2.13 4.36-.07.1 5.61-.91.02-.02-.69-3.44.06.07 3.89-.93.01-.06-3.88-3.43.06.01.74-.88.02-.1-5.68 4.31-.07-.04-2.14zm-7.12 1.64.02.79-3.94.07c1.07 1.07 2.69 2.02 4.21 2.46-.19.16-.44.51-.58.73-1.66-.58-3.45-1.77-4.58-3.12l.05 2.45-.88.01-.04-2.43c-1.05 1.42-2.81 2.69-4.42 3.36-.15-.2-.41-.53-.6-.7 1.46-.53 3.05-1.56 4.05-2.71l-3.84.07-.01-.79 4.81-.09-.03-1.51.87-.01.03 1.51zm-17.74 1.32.92-.01.02 1.15 3.78-.07.1 5.64-.88.01-.01-.62-2.9.05.04 2.25-.92.01-.04-2.24-2.9.05.01.67-.85.02-.1-5.69 3.75-.07zm20.56.12.05 3.18 3.43-.06-.05-3.18zm4.35-.07.05 3.18 3.45-.06-.06-3.18zm-24.85 3.2-.02-1.31-2.9.05.02 1.31zm3.82-.06-.02-1.31-2.91.05.03 1.31zm5.38 3.18-.07-3.89 6.63-.11.06 3.88zm.84-2.27 4.83-.09-.01-.99-4.84.08zm-12.93-.04.03 1.37 2.9-.05-.03-1.37zm3.82-.07.02 1.37 2.91-.05-.03-1.37zm9.13 1.73 4.84-.09-.02-.99-4.83.08zm7.62 2.02-10.21.18-.01-.8 10.2-.18zM339.48 45.11l-8.13.15.04 1.77-.88.02-.05-2.63 4.63-.08c-.17-.39-.39-.86-.61-1.22l.89-.26c.28.45.6 1.03.78 1.46l4.23-.07.04 2.62-.91.02zm10.26 4.67c.63-.96 1.13-2.05 1.48-3.26l.9.21c-.49 1.56-1.17 2.94-2.04 4.09.46 1.17 1.03 1.84 1.64 1.83.34 0 .47-.63.53-2.23.2.2.53.4.77.47-.13 2.04-.44 2.64-1.36 2.65-.92.02-1.65-.7-2.23-1.93-.7.79-1.52 1.48-2.43 2.04-.14-.18-.46-.54-.66-.7a9.609 9.609 0 0 0 2.72-2.27c-.46-1.34-.78-3.11-.97-5.03l-4.14.07.03 1.56 3.06-.06.01.39c-.02 2.69-.07 3.7-.32 4.01-.17.23-.38.32-.71.36-.3.03-.84.04-1.43.03-.02-.28-.12-.61-.27-.84.56.04 1.07.04 1.28.04.17 0 .29-.03.35-.14.17-.18.22-.94.23-3l-2.19.04.01.09c.03 1.68-.11 4.1-1.16 5.68-.16-.18-.55-.49-.76-.59.96-1.48 1.03-3.54 1.01-5.08l-.06-3.35 5-.09c-.06-.66-.08-1.33-.11-2.01l.93-.02c.01.7.03 1.37.08 2.02l3.87-.07.02.87-3.82.07c.15 1.6.39 3.02.74 4.15m1.86-5.07.55-.62c-.48-.41-1.43-.97-2.17-1.33l-.53.55c.77.39 1.69.99 2.15 1.4m-31.35 7.33c.02.75.28.92 1.58.9l4.56-.08c1.3-.03 1.49-.43 1.62-2.36.25.16.65.3.91.34-.19 2.2-.57 2.86-2.53 2.89l-4.49.08c-1.92.03-2.52-.29-2.55-1.77l-.1-6 .9-.01.03 1.96 6.27-.1-.06-3.15-7.8.14-.02-.88 8.72-.15.09 5.48-.91.02-.01-.59-6.26.11zm18.45-5.64.01.83-6.48.11-.01-.83zm-1.3 6.06c0 .35.09.4.58.4l1.66-.03c.45-.01.52-.23.54-1.59.21.15.57.27.83.33-.08 1.66-.33 2.07-1.28 2.08l-1.83.04c-1.09.02-1.37-.26-1.39-1.2l-.05-2.99-2.11.03c-.14 2.49-.74 3.8-3.71 4.49-.07-.23-.31-.57-.48-.74 2.69-.58 3.18-1.6 3.29-3.73l-3.19.06-.02-.86 10.55-.18.01.85-3.45.06zM162.1 231c-.48 0-.87-.38-.89-.87L152 38.94c-.03-.5.35-.92.85-.94.47-.03.91.36.93.86l9.21 191.19c.03.5-.35.92-.85.94zM310.1 231c-.48 0-.87-.38-.89-.87L300 38.94c-.03-.5.35-.92.85-.94.46-.03.91.36.94.86l9.2 191.19c.03.5-.35.92-.85.94zM236.1 231c-.48 0-.87-.38-.89-.87L226 38.94c-.03-.5.35-.92.85-.94.49-.03.91.36.94.86l9.2 191.19c.03.5-.35.92-.85.94z"/><path fill="#3F8CFF" fill-rule="evenodd" d="M367.09 59H88.9c-.5 0-.9-.45-.9-1 0-.56.4-1 .9-1h278.19c.5 0 .91.44.91 1 0 .55-.41 1-.91 1"/><path fill="#DADFE4" fill-rule="evenodd" d="m155.096 80.119 2.366 48.608 5.688-.306c-2.558-17.006-4.418-33.343-4.962-48.421zm-44.09 1.702c-.104 13.831 1.067 32.507 3.851 49.203l40.793-2.199-2.368-48.636z" clip-rule="evenodd"/><path fill="#B0C9DF" fill-rule="evenodd" d="M156.26 129 154 80.07l1.73-.07 2.27 48.9z"/><path fill="#12499A" fill-rule="evenodd" d="M164 126.39 115.93 129c-2.77-16.69-4.5-32.87-4.93-48.4l48.06-2.6c.54 15.07 2.39 31.4 4.94 48.39"/><path fill="#DADFE4" fill-rule="evenodd" d="M224.99 146 176 143.07V95l49 2.92z"/><path fill="#FFFFFE" fill-rule="evenodd" d="M223.43 145 175 142.09l.57-48.09L224 96.9z"/><path fill="#DADFE4" fill-rule="evenodd" d="m268.918 110.899.374.058c-.989-6.249-2.279-12.803-3.757-19.545a235.76 235.76 0 0 1 3.383 19.487m41.016 24.632c.03-.77.057-1.533.08-2.287l8.31-.428c.55-5.1.199-11.684-.679-19.136 1.224 8.468 1.948 16.643 1.419 21.552z" clip-rule="evenodd"/><path fill="#6D5DD3" fill-rule="evenodd" d="m271.71 135 47.02-2.43c1.21-11.21-1.91-29.57-5.43-48.57L265 87.07c4.02 17.78 6.93 34.43 6.71 47.93"/><path fill="#DADFE4" fill-rule="evenodd" d="m159.429 161.173 2.325 47.768 25.346-2.575c-.128-11.297-5.938-37.533-9.383-47.366zm-21.875 50.228c-1.378-13.455-1.586-29.332-6.554-46.85l26.622-3.163 2.324 47.737z" clip-rule="evenodd"/><path fill="#B0C9DF" fill-rule="evenodd" d="M160.25 209 158 161.21l1.74-.21 2.26 47.81z"/><path fill="#FDC748" fill-rule="evenodd" d="m139.15 210 47.79-5.16c.59-11.18-3.51-29.2-8.04-47.84l-47.9 5.65c3.87 17.45 7.63 33.96 8.15 47.35"/><path fill="#DADFE4" fill-rule="evenodd" d="M306.088 166.388 258 157.37c3.146-12.934 5.079-29.392 4.982-47.37l6.085.953c1.224 9.426 1.742 18.202 1.621 25.92l24.207-.791a38.915 38.915 0 0 0 1.86 2.34c.709.833 1.43 1.662 2.193 2.458a45.33 45.33 0 0 0 4.992 4.513c.381.287.769.572 1.167.853zm3.825-27.096a29.05 29.05 0 0 1-1.5-.747 42.822 42.822 0 0 1-1.917-1.071l-.086-1.769 3.673-.12a289.84 289.84 0 0 1-.17 3.707m-6.097-3.502c.269.177.538.353.807.526l-.027-.552zm3.167 11.684.65 13.343c.674-3.508 1.207-7.711 1.613-12.142a23.445 23.445 0 0 1-2.263-1.201" clip-rule="evenodd"/><path fill="#B0C9DF" fill-rule="evenodd" d="M305.027 136.611c.623.401 1.248.788 1.873 1.158l-.086-1.769-1.814.059zm1.597 30.097-.132-.025-.981-20.142c.601.423 1.223.836 1.876 1.228l.65 13.343c-.416 2.167-.886 4.068-1.413 5.596" clip-rule="evenodd"/><path fill="#719CC6" fill-rule="evenodd" d="M269 111c1.224 9.426 1.742 18.202 1.621 25.92l24.207-.791a32.764 32.764 0 0 1-.2-.275l1.936-1.813-25.113 1.292c.114-7.279-.683-15.475-2.077-24.275zm37.236 22.543.107 2.209 3.673-.12c.03-.77.057-1.533.08-2.287zm-2.487 2.294-.347-.231a60.113 60.113 0 0 1-2.581-1.784l3.602-.185.106 2.174z" clip-rule="evenodd"/><path fill="#83A9CE" fill-rule="evenodd" d="m304.1 135-.1-1.92 1.88-.08.12 1.94z"/><path fill="#3769A4" fill-rule="evenodd" d="M271.08 135c.11-7.2-.69-15.3-2.08-24l40.78 6.29c.25 3.56.29 9.32.09 15.74l-3.88.2-1.82.09-3.61.18c-.77-.55-1.53-1.1-2.26-1.64l-2.01 1.86z"/><path fill="#FFFFFE" fill-rule="evenodd" d="m259 155.16 46.78 7.84c3.62-10.44 4.54-28.62 5.22-47.51L262.8 108c.1 17.83-.66 34.33-3.8 47.16"/><path fill="#BE5B52" fill-rule="evenodd" d="M372.86 112c.94 1.01 1.74 1.91 2.56 2.89.81.97 1.6 1.94 2.38 2.93a94.04 94.04 0 0 1 4.44 6.14c1.39 2.12 2.76 4.27 3.98 6.56 1.23 2.28 2.39 4.62 3.34 7.14l.36.94.09.24.12.34.22.69c.11.44.21.86.29 1.28.07.4.14.81.19 1.2.18 1.54.19 2.96.14 4.32-.08 2.72-.44 5.28-.85 7.79-.89 5.01-2.17 9.78-3.82 14.54l-5.19-1.22c.38-4.73.74-9.55.87-14.19.07-2.32.04-4.62-.11-6.76-.08-1.06-.22-2.08-.42-2.93l-.15-.6-.17-.47-.56-1.17c-1.89-3.89-4.39-7.72-7.06-11.43-1.34-1.86-2.75-3.68-4.17-5.49-.71-.91-1.44-1.81-2.18-2.69l-2.16-2.57z"/><path fill="#BD5B52" fill-rule="evenodd" d="m381.71 166-3.71 3.86 7.24 4.14s2.51-3.23 1.53-6.53zM373 175.63l7.01 2.37 4.99-3.92-7.21-4.08z"/><path fill="#3769A4" fill-rule="evenodd" d="M392.97 192 347 181.97c2.45-16.13 5.73-31.51 10.02-45.97L403 146.02c-4.06 14.06-7.27 29.62-10.03 45.98"/><path fill="#FFFFFE" fill-rule="evenodd" d="M386.69 193 342 179.69 355.3 135l44.7 13.3z"/><path fill="#132529" fill-rule="evenodd" d="M345.99 82.02c-.02.55-.26.99-.54.97-.27-.01-.48-.47-.45-1.02.02-.55.26-.99.54-.97.27.01.48.47.45 1.02"/><path fill="#A92D2F" fill-rule="evenodd" d="M346 83s-1.48 3.56-3 5.24c.96 1.08 2.71.68 2.71.68z"/><path fill="#132529" fill-rule="evenodd" d="m348.74 78.99.19-.09c.1-.11.08-.26-.05-.35-1.3-.84-2.62-.48-2.68-.47-.15.05-.24.19-.19.32.05.12.22.19.38.15.04-.01 1.08-.28 2.12.39.06.05.15.06.23.05"/><path fill="#BD5B52" fill-rule="evenodd" d="M364.16 91c-1.11 5.16-1.83 12.31 1.84 15.76 0 0-1.52 5.24-11.37 5.24-10.82 0-5.15-4.6-5.15-4.6 4.52-1.36 4.55-6.36 3.57-10.37z"/><path fill="#3769A4" fill-rule="evenodd" d="M339.105 354.191c.293.414 1.184.542 2.107.542.86 0 1.75-.11 2.21-.202l.137-.14-.082-.175c-.105-.061-2.602-1.495-3.803-1.168a.857.857 0 0 0-.545.398c-.206.353-.127.6-.024.745m.984-.853c-.12 0-.231.011-.33.039a.52.52 0 0 0-.337.238c-.123.211-.081.316-.038.377.329.465 2.148.476 3.488.286-.663-.342-1.942-.94-2.783-.94" clip-rule="evenodd"/><path fill="#3769A4" fill-rule="evenodd" d="m343.43 354.243.069.015.1-.032.072-.155c-.007-.082-.176-2.02-1.081-2.771a1.23 1.23 0 0 0-.941-.293c-.469.048-.608.285-.641.477-.142.813 1.558 2.37 2.422 2.759m-1.649-2.902-.102.006c-.307.03-.329.151-.335.191-.085.488 1.068 1.711 1.947 2.243-.085-.565-.326-1.725-.921-2.218a.894.894 0 0 0-.589-.222" clip-rule="evenodd"/><path fill="#BD5B52" fill-rule="evenodd" d="M352 354h-7.48l-.52-17h7.47z"/><path fill="#0A1629" fill-rule="evenodd" d="M344.28 353h7.77c.29 0 .54.2.6.48l1.32 6.25c.14.65-.37 1.26-1.04 1.25-2.8-.05-6.84-.21-10.36-.21-4.12 0-6.72.23-11.55.23-2.92 0-3.69-2.93-2.47-3.19 5.58-1.2 9.17-1.33 14.01-4.27.53-.31 1.11-.54 1.72-.54"/><path fill="#3769A4" fill-rule="evenodd" d="M369.22 108c7 .07 16.78 17.27 16.78 17.27L375.15 136s-7.1-3.21-11.05-11.04c-4.14-8.2-2.03-17.04 5.12-16.96"/><path fill="#3A81EB" fill-rule="evenodd" d="M375.37 136c.24-5.14.68-10.55 1.4-16.04.07-.52.1-1.03.1-1.54 0-3.87-1.91-7.38-4.87-9.42 6.15 3.75 13 16.73 13 16.73l-1.51 1.61z"/><path fill="#3769A4" fill-rule="evenodd" d="M336.44 115.01c-1.56 7.72-2.68 23.58 1.16 54.99h38.19c.3-5.09-2.16-27.29 1.1-51.13.88-6.44-3.94-12.26-10.41-12.61l-.42-.03c-4.88-.23-11.94-.39-16.24 0-1.79.17-3.55.43-5.12.7a10.27 10.27 0 0 0-8.26 8.08"/><path fill="#3F8CFF" fill-rule="evenodd" d="M376.094 170.43h-38.486c-1.449-11.856-2.197-21.509-2.482-29.356 3.872-.977 8.268-4.404 9.788-8.623 3.46-3.505 7.777-9.045 8.183-15.164.022-.334.033-.665.033-.993-.002-5.092-2.655-9.402-7.244-9.402-.72 0-1.487.106-2.299.332.382-.115.774-.208 1.173-.279a62.7 62.7 0 0 1 5.164-.704c1.91-.174 4.362-.241 6.929-.241a204.616 204.616 0 0 1 9.853.262c6.011.332 10.602 5.328 10.599 11.174a11.412 11.412 0 0 1-.105 1.523c-1.344 9.82-1.724 19.363-1.724 27.564 0 10.666.643 19.06.643 22.832 0 .415-.008.775-.025 1.075M335 136c.013 1.082.036 2.203.07 3.367a44.39 44.39 0 0 1 .031-3.472z" clip-rule="evenodd"/><path fill="#9AA9B8" fill-rule="evenodd" d="M334.52 142c-.02-.69-.04-1.36-.05-2 .01.65.03 1.32.05 2"/><path fill="#3576D6" fill-rule="evenodd" d="m335.07 142-.06-1.79c-.03-1.29-.02-2.5.04-3.62.28-.31.57-.61.85-.92.25-.28.5-.56.76-.84l3.9 2.21s2.01-1.52 4.44-4.04c-1.55 4.4-6 7.98-9.93 9"/><path fill="#BEBFBB" fill-rule="evenodd" d="m351.19 345.58-.26-8.58h.01z"/><path fill="#914642" fill-rule="evenodd" d="M351 346h-6.76v-.02L344 337h6.75z"/><path fill="#BD5B52" fill-rule="evenodd" d="M365.93 81.79c-.83 7.06-.95 11.22-4.78 14.71-5.76 5.25-14.46 1.65-15.79-5.48-1.2-6.42.35-16.89 7.55-19.42 7.08-2.5 13.84 3.13 13.02 10.19"/><path fill="#233862" fill-rule="evenodd" d="M351.07 84.31c-2.22.5-3.22-4.66-.97-6.64-2-.99-4.9-2.42-5.87-4.58-1.11-2.48 1.91-5.45 4.5-5.32-.84-1.65 1.01-6.07 6.29-4.41 5.41 1.71 7.78 4.24 7.78 4.24s1.75-5.72 5.42-1.1c3.27 4.11 1.98 7.62 1.98 7.62s4.84 4.54 3.59 7.92c-1.25 3.39-4.01 4.58-4.01 4.58s.73 7.96-5.16 9.87c-5.9 1.91-9.61-2.03-9.12-4.3-3.81.21-7.69-4.82-4.43-7.88"/><path fill="#BD5B52" fill-rule="evenodd" d="M353.96 84.28c-.25 1.96-1.28 3.76-2.44 4.9-1.75 1.73-3.38.49-3.51-1.74-.13-2.01.64-5.33 2.7-6.21 2.03-.87 3.54.81 3.25 3.05M413 344.67l-6.52 2.33-6.48-16.68 6.51-2.32z"/><path fill="#3769A4" fill-rule="evenodd" d="M401.449 348.684c.488.144 1.266-.306 1.992-.877a12.642 12.642 0 0 0 1.612-1.525l.021-.194-.172-.088c-.121.018-2.969.435-3.712 1.434a.859.859 0 0 0-.182.65c.056.404.271.55.441.6m.246-1.28a1.309 1.309 0 0 0-.235.236.52.52 0 0 0-.117.395c.034.242.132.299.203.32.546.162 1.982-.954 2.918-1.931-.733.141-2.108.461-2.769.98" clip-rule="evenodd"/><path fill="#3769A4" fill-rule="evenodd" d="m404.673 346.795.064-.031.059-.087-.039-.166c-.056-.06-1.387-1.48-2.564-1.511a1.228 1.228 0 0 0-.92.353c-.339.327-.301.599-.209.77.391.729 2.69.9 3.609.672m-3.09-1.261-.077.068c-.222.213-.164.321-.145.356.235.438 1.898.685 2.918.56-.417-.393-1.324-1.155-2.096-1.174a.89.89 0 0 0-.6.19" clip-rule="evenodd"/><path fill="#0A1629" fill-rule="evenodd" d="m405.51 344.89 6.07-4.76c.22-.18.55-.18.78-.01l5.22 3.88c.54.4.56 1.17.03 1.58-2.22 1.68-6.51 5.12-9.13 7.43-3.06 2.71-.67.9-4.26 4.07-2.17 1.92-4.83.36-4.1-.63 3.28-4.52 3.98-7.21 4.41-10.1.08-.59.5-1.09.98-1.46"/><path fill="#BD5B52" fill-rule="evenodd" d="m300 132.81-2.69-5.81-7.31 4.55s2.41 4.95 7.4 4.4z"/><path fill="#BD5B52" fill-rule="evenodd" d="m290.62 125.59-1.75 1.48a2.45 2.45 0 0 0-.08 3.68l1.36 1.25 7.85-4.76-4.71-2.03c-.89-.39-1.93-.24-2.67.38"/><path fill="#BEBFBB" fill-rule="evenodd" d="m407.826 333.001 1.673 4.33.003-.001-1.673-4.33z" clip-rule="evenodd"/><path fill="#914642" fill-rule="evenodd" d="m403.35 340-.11-.29-1.24-3.27 6.26-3.44 1.74 4.57z"/><path fill="#0A1629" fill-rule="evenodd" d="M351 171s12.06 55.41 16.68 75.98c5.05 22.53 31.64 91.02 31.64 91.02l11.68-6.32s-12.49-53.73-21.62-83.04c-3.31-24.23-13.43-77.64-13.43-77.64z"/><path fill="#3F8CFF" fill-rule="evenodd" d="m396 334.4 2.41 4.6 14.59-5.52-1.16-4.48z"/><path fill="#A0A29F" fill-rule="evenodd" d="M367.61 248c-.08-.35-.15-.68-.23-1h.01c.07.3.14.6.22.91z"/><path fill="#939692" fill-rule="evenodd" d="M367.56 247.79c-.05-.2-.09-.4-.13-.59.04.19.09.39.13.59"/><path fill="#1D5697" fill-rule="evenodd" d="M367.9 247c-.01-.03-.01-.06-.02-.09-.24-1.2-.51-2.51-.79-3.91.28 1.4.55 2.71.79 3.92.01.02.02.05.02.08"/><path fill="#8593A0" fill-rule="evenodd" d="M367 243h-.01c-.3-1.55-.64-3.22-.99-5 .35 1.78.69 3.45 1 5"/><path fill="#000" fill-rule="evenodd" d="M367.98 248c-.08-.33-.15-.64-.22-.95-.04-.2-.09-.4-.13-.59 0-.02-.01-.05-.01-.07-.24-1.1-.5-2.29-.77-3.57-.35-1.65-.73-3.44-1.14-5.34-2.5-11.78-5.89-27.87-8.71-41.34.28-.1.58-.14.89-.14.17 0 .34.01.51.03 8.74 1.21 9.74 33.16 9.58 51.97"/><path fill="#0A1629" fill-rule="evenodd" d="M337.62 171s-3.07 53.7-2.57 75.61C335.57 269.39 342 344 342 344h12.23s2-73.28 2.83-95.65C357.97 223.95 363 171 363 171z"/><path fill="#3F8CFF" fill-rule="evenodd" d="m339 339 .62 5h14.91l.47-4.47z"/><path fill="#BE5B52" fill-rule="evenodd" d="M348 119.36c-1.66 2.96-3.56 5.76-5.56 8.46-2.02 2.68-4.2 5.22-6.5 7.63-2.28 2.42-4.69 4.69-7.16 6.86-2.43 2.17-5.06 4.23-7.38 6.13l-.82.67-.67.24c-1.8.64-3.62.75-5.18.57-1.57-.18-2.94-.59-4.18-1.07-2.47-.99-4.46-2.31-6.3-3.68-1.83-1.4-3.47-2.9-5-4.48-.76-.79-1.48-1.62-2.19-2.44-.72-.84-1.38-1.65-2.06-2.6l3.94-3.66c1.54 1.13 3.19 2.36 4.84 3.42 1.64 1.08 3.29 2.1 4.94 2.96 1.64.87 3.31 1.57 4.78 1.93.72.18 1.39.25 1.89.22.51-.03.8-.14.95-.25l-1.49.91c2.44-2.27 4.65-4.29 6.85-6.42 2.18-2.13 4.27-4.3 6.27-6.53 1.98-2.25 3.89-4.54 5.64-6.92 1.78-2.36 3.38-4.83 4.91-7.31z"/><path fill="#3769A4" fill-rule="evenodd" d="M352.96 117.24C352.28 127.43 340.4 136 340.4 136l-15.4-8.33s5.67-12.01 13.32-17.68c9.44-7.01 15.16-.51 14.64 7.25"/><path fill="#3F8CFF" fill-rule="evenodd" d="m340.4 136-13.59-7.35-1.81-.98s5.67-12.01 13.32-17.68c2.83-2.11 5.33-2.99 7.43-2.99 4.59 0 7.24 4.24 7.25 9.26 0 .32-.02.65-.04.98-.68 10.19-12.56 18.76-12.56 18.76"/></g></svg>